# Original asset generated in Blender
v -5.350000 -0.470000 5.350000
v -5.350000 -0.445000 5.375000
v -5.375000 -0.445000 5.350000
v -5.350000 -0.462678 5.367678
v -5.364434 -0.459434 5.364434
v -5.367678 -0.445000 5.367678
v -5.367678 -0.462678 5.350000
v -5.350000 -0.075000 5.375000
v -5.350000 -0.050000 5.350000
v -5.375000 -0.075000 5.350000
v -5.350000 -0.057322 5.367678
v -5.364434 -0.060566 5.364434
v -5.367678 -0.057322 5.350000
v -5.367678 -0.075000 5.367678
v -5.350000 -0.470000 -5.350000
v -5.375000 -0.445000 -5.350000
v -5.350000 -0.445000 -5.375000
v -5.367678 -0.462678 -5.350000
v -5.364434 -0.459434 -5.364434
v -5.367678 -0.445000 -5.367678
v -5.350000 -0.462678 -5.367678
v -5.350000 -0.050000 -5.350000
v -5.350000 -0.075000 -5.375000
v -5.375000 -0.075000 -5.350000
v -5.350000 -0.057322 -5.367678
v -5.364434 -0.060566 -5.364434
v -5.367678 -0.075000 -5.367678
v -5.367678 -0.057322 -5.350000
v 5.350000 -0.470000 5.350000
v 5.375000 -0.445000 5.350000
v 5.350000 -0.445000 5.375000
v 5.367678 -0.462678 5.350000
v 5.364434 -0.459434 5.364434
v 5.367678 -0.445000 5.367678
v 5.350000 -0.462678 5.367678
v 5.350000 -0.050000 5.350000
v 5.350000 -0.075000 5.375000
v 5.375000 -0.075000 5.350000
v 5.350000 -0.057322 5.367678
v 5.364434 -0.060566 5.364434
v 5.367678 -0.075000 5.367678
v 5.367678 -0.057322 5.350000
v 5.350000 -0.470000 -5.350000
v 5.350000 -0.445000 -5.375000
v 5.375000 -0.445000 -5.350000
v 5.350000 -0.462678 -5.367678
v 5.364434 -0.459434 -5.364434
v 5.367678 -0.445000 -5.367678
v 5.367678 -0.462678 -5.350000
v 5.350000 -0.050000 -5.350000
v 5.375000 -0.075000 -5.350000
v 5.350000 -0.075000 -5.375000
v 5.367678 -0.057322 -5.350000
v 5.364434 -0.060566 -5.364434
v 5.367678 -0.075000 -5.367678
v 5.350000 -0.057322 -5.367678
v -5.350000 -0.115000 5.275000
v -5.350000 -0.090000 5.300000
v -5.375000 -0.090000 5.275000
v -5.350000 -0.107678 5.292678
v -5.364434 -0.104434 5.289434
v -5.367678 -0.090000 5.292678
v -5.367678 -0.107678 5.275000
v -5.350000 0.060000 5.300000
v -5.350000 0.085000 5.275000
v -5.375000 0.060000 5.275000
v -5.350000 0.077678 5.292678
v -5.364434 0.074434 5.289434
v -5.367678 0.077678 5.275000
v -5.367678 0.060000 5.292678
v -5.350000 -0.115000 -5.275000
v -5.375000 -0.090000 -5.275000
v -5.350000 -0.090000 -5.300000
v -5.367678 -0.107678 -5.275000
v -5.364434 -0.104434 -5.289434
v -5.367678 -0.090000 -5.292678
v -5.350000 -0.107678 -5.292678
v -5.350000 0.085000 -5.275000
v -5.350000 0.060000 -5.300000
v -5.375000 0.060000 -5.275000
v -5.350000 0.077678 -5.292678
v -5.364434 0.074434 -5.289434
v -5.367678 0.060000 -5.292678
v -5.367678 0.077678 -5.275000
v -5.150000 -0.115000 5.275000
v -5.125000 -0.090000 5.275000
v -5.150000 -0.090000 5.300000
v -5.132322 -0.107678 5.275000
v -5.135566 -0.104434 5.289434
v -5.132322 -0.090000 5.292678
v -5.150000 -0.107678 5.292678
v -5.150000 0.085000 5.275000
v -5.150000 0.060000 5.300000
v -5.125000 0.060000 5.275000
v -5.150000 0.077678 5.292678
v -5.135566 0.074434 5.289434
v -5.132322 0.060000 5.292678
v -5.132322 0.077678 5.275000
v -5.150000 -0.115000 -5.275000
v -5.150000 -0.090000 -5.300000
v -5.125000 -0.090000 -5.275000
v -5.150000 -0.107678 -5.292678
v -5.135566 -0.104434 -5.289434
v -5.132322 -0.090000 -5.292678
v -5.132322 -0.107678 -5.275000
v -5.150000 0.085000 -5.275000
v -5.125000 0.060000 -5.275000
v -5.150000 0.060000 -5.300000
v -5.132322 0.077678 -5.275000
v -5.135566 0.074434 -5.289434
v -5.132322 0.060000 -5.292678
v -5.150000 0.077678 -5.292678
v 5.150000 -0.115000 5.275000
v 5.150000 -0.090000 5.300000
v 5.125000 -0.090000 5.275000
v 5.150000 -0.107678 5.292678
v 5.135566 -0.104434 5.289434
v 5.132322 -0.090000 5.292678
v 5.132322 -0.107678 5.275000
v 5.150000 0.060000 5.300000
v 5.150000 0.085000 5.275000
v 5.125000 0.060000 5.275000
v 5.150000 0.077678 5.292678
v 5.135566 0.074434 5.289434
v 5.132322 0.077678 5.275000
v 5.132322 0.060000 5.292678
v 5.150000 -0.115000 -5.275000
v 5.125000 -0.090000 -5.275000
v 5.150000 -0.090000 -5.300000
v 5.132322 -0.107678 -5.275000
v 5.135566 -0.104434 -5.289434
v 5.132322 -0.090000 -5.292678
v 5.150000 -0.107678 -5.292678
v 5.150000 0.085000 -5.275000
v 5.150000 0.060000 -5.300000
v 5.125000 0.060000 -5.275000
v 5.150000 0.077678 -5.292678
v 5.135566 0.074434 -5.289434
v 5.132322 0.060000 -5.292678
v 5.132322 0.077678 -5.275000
v 5.350000 -0.115000 5.275000
v 5.375000 -0.090000 5.275000
v 5.350000 -0.090000 5.300000
v 5.367678 -0.107678 5.275000
v 5.364434 -0.104434 5.289434
v 5.367678 -0.090000 5.292678
v 5.350000 -0.107678 5.292678
v 5.350000 0.085000 5.275000
v 5.350000 0.060000 5.300000
v 5.375000 0.060000 5.275000
v 5.350000 0.077678 5.292678
v 5.364434 0.074434 5.289434
v 5.367678 0.060000 5.292678
v 5.367678 0.077678 5.275000
v 5.350000 -0.115000 -5.275000
v 5.350000 -0.090000 -5.300000
v 5.375000 -0.090000 -5.275000
v 5.350000 -0.107678 -5.292678
v 5.364434 -0.104434 -5.289434
v 5.367678 -0.090000 -5.292678
v 5.367678 -0.107678 -5.275000
v 5.350000 0.085000 -5.275000
v 5.375000 0.060000 -5.275000
v 5.350000 0.060000 -5.300000
v 5.367678 0.077678 -5.275000
v 5.364434 0.074434 -5.289434
v 5.367678 0.060000 -5.292678
v 5.350000 0.077678 -5.292678
v -5.275000 -0.115000 5.350000
v -5.275000 -0.090000 5.375000
v -5.300000 -0.090000 5.350000
v -5.275000 -0.107678 5.367678
v -5.289434 -0.104434 5.364434
v -5.292678 -0.090000 5.367678
v -5.292678 -0.107678 5.350000
v -5.275000 0.060000 5.375000
v -5.275000 0.085000 5.350000
v -5.300000 0.060000 5.350000
v -5.275000 0.077678 5.367678
v -5.289434 0.074434 5.364434
v -5.292678 0.077678 5.350000
v -5.292678 0.060000 5.367678
v -5.275000 -0.115000 5.150000
v -5.300000 -0.090000 5.150000
v -5.275000 -0.090000 5.125000
v -5.292678 -0.107678 5.150000
v -5.289434 -0.104434 5.135566
v -5.292678 -0.090000 5.132322
v -5.275000 -0.107678 5.132322
v -5.275000 0.085000 5.150000
v -5.275000 0.060000 5.125000
v -5.300000 0.060000 5.150000
v -5.275000 0.077678 5.132322
v -5.289434 0.074434 5.135566
v -5.292678 0.060000 5.132322
v -5.292678 0.077678 5.150000
v 5.275000 -0.115000 5.350000
v 5.300000 -0.090000 5.350000
v 5.275000 -0.090000 5.375000
v 5.292678 -0.107678 5.350000
v 5.289434 -0.104434 5.364434
v 5.292678 -0.090000 5.367678
v 5.275000 -0.107678 5.367678
v 5.275000 0.085000 5.350000
v 5.275000 0.060000 5.375000
v 5.300000 0.060000 5.350000
v 5.275000 0.077678 5.367678
v 5.289434 0.074434 5.364434
v 5.292678 0.060000 5.367678
v 5.292678 0.077678 5.350000
v 5.275000 -0.115000 5.150000
v 5.275000 -0.090000 5.125000
v 5.300000 -0.090000 5.150000
v 5.275000 -0.107678 5.132322
v 5.289434 -0.104434 5.135566
v 5.292678 -0.090000 5.132322
v 5.292678 -0.107678 5.150000
v 5.275000 0.085000 5.150000
v 5.300000 0.060000 5.150000
v 5.275000 0.060000 5.125000
v 5.292678 0.077678 5.150000
v 5.289434 0.074434 5.135566
v 5.292678 0.060000 5.132322
v 5.275000 0.077678 5.132322
v -5.275000 -0.115000 -5.150000
v -5.275000 -0.090000 -5.125000
v -5.300000 -0.090000 -5.150000
v -5.275000 -0.107678 -5.132322
v -5.289434 -0.104434 -5.135566
v -5.292678 -0.090000 -5.132322
v -5.292678 -0.107678 -5.150000
v -5.275000 0.060000 -5.125000
v -5.275000 0.085000 -5.150000
v -5.300000 0.060000 -5.150000
v -5.275000 0.077678 -5.132322
v -5.289434 0.074434 -5.135566
v -5.292678 0.077678 -5.150000
v -5.292678 0.060000 -5.132322
v -5.275000 -0.115000 -5.350000
v -5.300000 -0.090000 -5.350000
v -5.275000 -0.090000 -5.375000
v -5.292678 -0.107678 -5.350000
v -5.289434 -0.104434 -5.364434
v -5.292678 -0.090000 -5.367678
v -5.275000 -0.107678 -5.367678
v -5.275000 0.085000 -5.350000
v -5.275000 0.060000 -5.375000
v -5.300000 0.060000 -5.350000
v -5.275000 0.077678 -5.367678
v -5.289434 0.074434 -5.364434
v -5.292678 0.060000 -5.367678
v -5.292678 0.077678 -5.350000
v 5.275000 -0.115000 -5.150000
v 5.300000 -0.090000 -5.150000
v 5.275000 -0.090000 -5.125000
v 5.292678 -0.107678 -5.150000
v 5.289434 -0.104434 -5.135566
v 5.292678 -0.090000 -5.132322
v 5.275000 -0.107678 -5.132322
v 5.275000 0.085000 -5.150000
v 5.275000 0.060000 -5.125000
v 5.300000 0.060000 -5.150000
v 5.275000 0.077678 -5.132322
v 5.289434 0.074434 -5.135566
v 5.292678 0.060000 -5.132322
v 5.292678 0.077678 -5.150000
v 5.275000 -0.115000 -5.350000
v 5.275000 -0.090000 -5.375000
v 5.300000 -0.090000 -5.350000
v 5.275000 -0.107678 -5.367678
v 5.289434 -0.104434 -5.364434
v 5.292678 -0.090000 -5.367678
v 5.292678 -0.107678 -5.350000
v 5.275000 0.085000 -5.350000
v 5.300000 0.060000 -5.350000
v 5.275000 0.060000 -5.375000
v 5.292678 0.077678 -5.350000
v 5.289434 0.074434 -5.364434
v 5.292678 0.060000 -5.367678
v 5.275000 0.077678 -5.367678
vn 0.000000 0.000000 1.000000
vn 1.000000 0.000000 -0.000000
vn 0.000000 -1.000000 -0.000000
vn 0.000000 1.000000 -0.000000
vn -1.000000 0.000000 -0.000000
vn 0.000000 0.000000 -1.000000
vn 0.000000 0.000000 1.000000
vn 1.000000 0.000000 -0.000000
vn 0.000000 -1.000000 -0.000000
vn 0.000000 1.000000 -0.000000
vn -1.000000 0.000000 -0.000000
vn 0.000000 0.000000 -1.000000
vn 0.000000 0.000000 1.000000
vn 1.000000 0.000000 -0.000000
vn 0.000000 -1.000000 -0.000000
vn 0.000000 1.000000 -0.000000
vn -1.000000 0.000000 -0.000000
vn 0.000000 0.000000 -1.000000
vn 0.000000 0.000000 1.000000
vn 1.000000 0.000000 -0.000000
vn 0.000000 -1.000000 -0.000000
vn 0.000000 1.000000 -0.000000
vn -1.000000 0.000000 -0.000000
vn 0.000000 0.000000 -1.000000
vn 0.000000 0.000000 1.000000
vn 1.000000 0.000000 -0.000000
vn 0.000000 1.000000 -0.000000
vn -1.000000 0.000000 -0.000000
vn 0.000000 0.000000 -1.000000
vn -0.367163 -0.886460 0.281744
vn -0.281743 -0.367153 0.886465
vn -0.886466 -0.281744 0.367149
vn -0.367149 0.281744 0.886466
vn -0.281744 0.886460 0.367163
vn -0.886465 0.367153 0.281743
vn -0.281744 -0.886460 -0.367163
vn -0.886465 -0.367153 -0.281743
vn -0.367149 -0.281744 -0.886466
vn -0.367163 0.886460 -0.281744
vn -0.281743 0.367153 -0.886465
vn -0.886466 0.281744 -0.367149
vn 0.281744 -0.886460 0.367163
vn 0.886465 -0.367153 0.281743
vn 0.367149 -0.281744 0.886466
vn 0.367163 0.886460 0.281744
vn 0.281743 0.367153 0.886465
vn 0.886466 0.281744 0.367149
vn 0.367163 -0.886460 -0.281744
vn 0.281743 -0.367153 -0.886465
vn 0.886466 -0.281744 -0.367149
vn 0.281744 0.886460 -0.367163
vn 0.886465 0.367153 -0.281743
vn 0.367149 0.281744 -0.886466
vn -0.367170 -0.886457 0.281745
vn -0.281745 -0.367173 0.886456
vn -0.886462 -0.281745 0.367157
vn -0.367169 0.281747 0.886457
vn -0.281744 0.886456 0.367173
vn -0.886462 0.367160 0.281743
vn -0.281745 -0.886456 -0.367172
vn -0.886462 -0.367159 -0.281744
vn -0.367169 -0.281747 -0.886457
vn -0.367171 0.886457 -0.281743
vn -0.281745 0.367173 -0.886456
vn -0.886462 0.281745 -0.367157
vn 0.281745 -0.886456 0.367172
vn 0.886462 -0.367159 0.281744
vn 0.367169 -0.281747 0.886457
vn 0.367179 0.886453 0.281745
vn 0.281746 0.367180 0.886453
vn 0.886453 0.281748 0.367178
vn 0.367178 -0.886453 -0.281746
vn 0.281746 -0.367180 -0.886453
vn 0.886453 -0.281748 -0.367178
vn 0.281744 0.886456 -0.367173
vn 0.886462 0.367160 -0.281743
vn 0.367169 0.281747 -0.886457
vn -0.367178 -0.886453 0.281746
vn -0.281746 -0.367180 0.886453
vn -0.886453 -0.281748 0.367178
vn -0.367178 0.281748 0.886453
vn -0.281745 0.886453 0.367179
vn -0.886453 0.367180 0.281746
vn -0.281745 -0.886456 -0.367172
vn -0.886462 -0.367159 -0.281744
vn -0.367169 -0.281747 -0.886457
vn -0.367179 0.886453 -0.281745
vn -0.281746 0.367180 -0.886453
vn -0.886453 0.281748 -0.367178
vn 0.281745 -0.886456 0.367172
vn 0.886462 -0.367159 0.281744
vn 0.367169 -0.281747 0.886457
vn 0.367171 0.886457 0.281743
vn 0.281745 0.367173 0.886456
vn 0.886462 0.281745 0.367157
vn 0.367170 -0.886457 -0.281745
vn 0.281745 -0.367173 -0.886456
vn 0.886462 -0.281745 -0.367157
vn 0.281744 0.886456 -0.367173
vn 0.886462 0.367160 -0.281743
vn 0.367169 0.281747 -0.886457
vn -0.367172 -0.886456 0.281745
vn -0.281744 -0.367159 0.886462
vn -0.886457 -0.281747 0.367169
vn -0.367157 0.281745 0.886462
vn -0.281743 0.886457 0.367171
vn -0.886456 0.367173 0.281745
vn -0.281746 -0.886453 -0.367178
vn -0.886453 -0.367180 -0.281746
vn -0.367178 -0.281748 -0.886453
vn -0.367173 0.886456 -0.281744
vn -0.281743 0.367160 -0.886462
vn -0.886457 0.281747 -0.367169
vn 0.281745 -0.886457 0.367170
vn 0.886456 -0.367173 0.281745
vn 0.367157 -0.281745 0.886462
vn 0.367173 0.886456 0.281744
vn 0.281743 0.367160 0.886462
vn 0.886457 0.281747 0.367169
vn 0.367172 -0.886456 -0.281745
vn 0.281744 -0.367159 -0.886462
vn 0.886457 -0.281747 -0.367169
vn 0.281745 0.886453 -0.367179
vn 0.886453 0.367180 -0.281746
vn 0.367178 0.281748 -0.886453
vn -0.367172 -0.886456 0.281745
vn -0.281744 -0.367159 0.886462
vn -0.886457 -0.281747 0.367169
vn -0.367157 0.281745 0.886462
vn -0.281743 0.886457 0.367171
vn -0.886456 0.367173 0.281745
vn -0.281745 -0.886457 -0.367170
vn -0.886456 -0.367173 -0.281745
vn -0.367157 -0.281745 -0.886462
vn -0.367173 0.886456 -0.281744
vn -0.281743 0.367160 -0.886462
vn -0.886457 0.281747 -0.367169
vn 0.281746 -0.886453 0.367178
vn 0.886453 -0.367180 0.281746
vn 0.367178 -0.281748 0.886453
vn 0.367173 0.886456 0.281744
vn 0.281743 0.367160 0.886462
vn 0.886457 0.281747 0.367169
vn 0.367172 -0.886456 -0.281745
vn 0.281744 -0.367159 -0.886462
vn 0.886457 -0.281747 -0.367169
vn 0.281743 0.886457 -0.367171
vn 0.886456 0.367173 -0.281745
vn 0.367157 0.281745 -0.886462
vn -0.382672 -0.923884 -0.000000
vn -0.923889 -0.382661 -0.000000
vn -0.382650 0.000000 0.923893
vn -0.923893 0.000000 0.382650
vn -0.382672 0.923884 -0.000000
vn -0.923889 0.382661 -0.000000
vn -0.382650 0.000000 -0.923893
vn -0.923893 0.000000 -0.382650
vn 0.000000 -0.923884 -0.382672
vn 0.000000 -0.382661 -0.923889
vn 0.000000 0.923884 -0.382672
vn 0.000000 0.382661 -0.923889
vn 0.923893 0.000000 -0.382650
vn 0.382650 0.000000 -0.923893
vn 0.382672 -0.923884 -0.000000
vn 0.923889 -0.382661 -0.000000
vn 0.382672 0.923884 -0.000000
vn 0.923889 0.382661 -0.000000
vn 0.382650 0.000000 0.923893
vn 0.923893 0.000000 0.382650
vn 0.000000 -0.923884 0.382672
vn 0.000000 -0.382661 0.923889
vn 0.000000 0.923884 0.382672
vn 0.000000 0.382661 0.923889
vn -0.382672 -0.923884 -0.000000
vn -0.923889 -0.382661 -0.000000
vn -0.382672 0.000000 0.923884
vn -0.923890 0.000000 0.382659
vn -0.382673 0.923884 -0.000000
vn -0.923889 0.382661 -0.000000
vn -0.382672 0.000000 -0.923884
vn -0.923890 0.000000 -0.382659
vn 0.000000 -0.923881 -0.382681
vn 0.000000 -0.382682 -0.923880
vn 0.000000 0.923880 -0.382682
vn 0.000000 0.382683 -0.923880
vn 0.923890 0.000000 -0.382659
vn 0.382672 -0.000001 -0.923884
vn 0.382672 -0.923884 -0.000000
vn 0.923889 -0.382661 -0.000000
vn 0.382673 0.923884 -0.000000
vn 0.923889 0.382661 0.000000
vn 0.382680 0.000000 0.923881
vn 0.923881 0.000003 0.382680
vn 0.000000 -0.923880 0.382681
vn 0.000000 -0.382682 0.923880
vn 0.000000 0.923880 0.382682
vn 0.000000 0.382683 0.923880
vn -0.382672 -0.923884 -0.000000
vn -0.923889 -0.382661 0.000000
vn -0.382680 0.000000 0.923881
vn -0.923881 0.000000 0.382680
vn -0.382682 0.923880 -0.000000
vn -0.923880 0.382683 -0.000000
vn -0.382680 0.000000 -0.923881
vn -0.923881 0.000003 -0.382680
vn 0.000000 -0.923880 -0.382681
vn 0.000000 -0.382682 -0.923880
vn 0.000000 0.923880 -0.382682
vn 0.000000 0.382683 -0.923880
vn 0.923890 0.000000 -0.382659
vn 0.382672 0.000000 -0.923884
vn 0.382672 -0.923884 -0.000000
vn 0.923889 -0.382661 -0.000000
vn 0.382673 0.923884 -0.000000
vn 0.923889 0.382661 -0.000000
vn 0.382672 0.000000 0.923884
vn 0.923890 0.000000 0.382659
vn 0.000000 -0.923881 0.382681
vn 0.000000 -0.382682 0.923880
vn 0.000000 0.923880 0.382682
vn 0.000000 0.382683 0.923880
vn -0.382681 -0.923881 -0.000000
vn -0.923880 -0.382682 -0.000000
vn -0.382659 0.000000 0.923890
vn -0.923884 0.000000 0.382672
vn -0.382682 0.923880 -0.000000
vn -0.923880 0.382683 -0.000000
vn -0.382659 0.000000 -0.923890
vn -0.923884 -0.000001 -0.382672
vn 0.000000 -0.923884 -0.382672
vn -0.000000 -0.382661 -0.923889
vn 0.000000 0.923884 -0.382673
vn 0.000000 0.382661 -0.923889
vn 0.923881 0.000000 -0.382680
vn 0.382680 0.000003 -0.923881
vn 0.382681 -0.923880 -0.000000
vn 0.923880 -0.382682 -0.000000
vn 0.382682 0.923880 -0.000000
vn 0.923880 0.382683 -0.000000
vn 0.382659 0.000000 0.923890
vn 0.923884 0.000000 0.382672
vn 0.000000 -0.923884 0.382672
vn 0.000000 -0.382661 0.923889
vn 0.000000 0.923884 0.382673
vn 0.000000 0.382661 0.923889
vn -0.382681 -0.923880 -0.000000
vn -0.923880 -0.382682 -0.000000
vn -0.382659 0.000000 0.923890
vn -0.923884 0.000000 0.382672
vn -0.382682 0.923880 -0.000000
vn -0.923880 0.382683 -0.000000
vn -0.382659 0.000000 -0.923890
vn -0.923884 0.000000 -0.382672
vn 0.000000 -0.923884 -0.382672
vn 0.000000 -0.382661 -0.923889
vn 0.000000 0.923884 -0.382673
vn 0.000000 0.382661 -0.923889
vn 0.923884 0.000000 -0.382672
vn 0.382659 0.000000 -0.923890
vn 0.382681 -0.923881 -0.000000
vn 0.923880 -0.382682 -0.000000
vn 0.382682 0.923880 -0.000000
vn 0.923880 0.382683 -0.000000
vn 0.382659 0.000000 0.923890
vn 0.923884 -0.000001 0.382672
vn 0.000000 -0.923884 0.382672
vn 0.000000 -0.382661 0.923889
vn 0.000000 0.923884 0.382673
vn 0.000000 0.382661 0.923889
vn 0.000000 -1.000000 -0.000000
vn 0.000000 0.000000 1.000000
vn 1.000000 0.000000 -0.000000
vn 0.000000 -1.000000 -0.000000
vn 0.000000 1.000000 -0.000000
vn -1.000000 0.000000 -0.000000
vn 0.000000 0.000000 -1.000000
vn 0.000000 0.000000 1.000000
vn 1.000000 0.000000 -0.000000
vn 0.000000 -1.000000 -0.000000
vn 0.000000 1.000000 -0.000000
vn -1.000000 0.000000 -0.000000
vn 0.000000 0.000000 -1.000000
vn 0.000000 0.000000 1.000000
vn 1.000000 0.000000 -0.000000
vn 0.000000 -1.000000 -0.000000
vn 0.000000 1.000000 -0.000000
vn -1.000000 0.000000 -0.000000
vn 0.000000 0.000000 -1.000000
vn 0.000000 0.000000 1.000000
vn 1.000000 0.000000 -0.000000
vn 0.000000 -1.000000 -0.000000
vn 0.000000 1.000000 -0.000000
vn -1.000000 0.000000 -0.000000
vn 0.000000 0.000000 -1.000000
vn 0.000000 0.000000 1.000000
vn 1.000000 0.000000 -0.000000
vn 0.000000 1.000000 -0.000000
vn -1.000000 0.000000 -0.000000
vn 0.000000 0.000000 -1.000000
vn -0.281744 -0.886460 0.367163
vn -0.367149 -0.281744 0.886466
vn -0.886465 -0.367153 0.281743
vn -0.281743 0.367153 0.886465
vn -0.367163 0.886460 0.281744
vn -0.886466 0.281744 0.367149
vn -0.367163 -0.886460 -0.281744
vn -0.886466 -0.281744 -0.367149
vn -0.281743 -0.367153 -0.886465
vn -0.281744 0.886460 -0.367163
vn -0.367149 0.281744 -0.886466
vn -0.886465 0.367153 -0.281743
vn 0.367163 -0.886460 0.281744
vn 0.886466 -0.281744 0.367149
vn 0.281743 -0.367153 0.886465
vn 0.281744 0.886460 0.367163
vn 0.367149 0.281744 0.886466
vn 0.886465 0.367153 0.281743
vn 0.281744 -0.886460 -0.367163
vn 0.367149 -0.281744 -0.886466
vn 0.886465 -0.367153 -0.281743
vn 0.367163 0.886460 -0.281744
vn 0.886466 0.281744 -0.367149
vn 0.281743 0.367153 -0.886465
vn -0.281745 -0.886456 0.367172
vn -0.367169 -0.281747 0.886457
vn -0.886462 -0.367159 0.281744
vn -0.281745 0.367173 0.886456
vn -0.367171 0.886457 0.281743
vn -0.886462 0.281745 0.367157
vn -0.367170 -0.886457 -0.281745
vn -0.886462 -0.281745 -0.367157
vn -0.281745 -0.367173 -0.886455
vn -0.281744 0.886456 -0.367173
vn -0.367169 0.281747 -0.886457
vn -0.886462 0.367160 -0.281743
vn 0.367170 -0.886457 0.281745
vn 0.886462 -0.281745 0.367157
vn 0.281745 -0.367173 0.886455
vn 0.281745 0.886453 0.367179
vn 0.367178 0.281748 0.886453
vn 0.886453 0.367180 0.281746
vn 0.281746 -0.886453 -0.367178
vn 0.367177 -0.281748 -0.886453
vn 0.886453 -0.367180 -0.281746
vn 0.367171 0.886457 -0.281743
vn 0.886462 0.281745 -0.367157
vn 0.281745 0.367173 -0.886456
vn -0.281746 -0.886453 0.367178
vn -0.367177 -0.281748 0.886453
vn -0.886453 -0.367180 0.281746
vn -0.281746 0.367180 0.886453
vn -0.367179 0.886453 0.281745
vn -0.886453 0.281748 0.367178
vn -0.367170 -0.886457 -0.281745
vn -0.886462 -0.281745 -0.367157
vn -0.281745 -0.367173 -0.886455
vn -0.281745 0.886453 -0.367179
vn -0.367178 0.281748 -0.886453
vn -0.886453 0.367180 -0.281746
vn 0.367170 -0.886457 0.281745
vn 0.886462 -0.281745 0.367157
vn 0.281745 -0.367173 0.886455
vn 0.281744 0.886456 0.367173
vn 0.367169 0.281747 0.886457
vn 0.886462 0.367160 0.281743
vn 0.281745 -0.886456 -0.367172
vn 0.367169 -0.281747 -0.886457
vn 0.886462 -0.367159 -0.281744
vn 0.367171 0.886457 -0.281743
vn 0.886462 0.281745 -0.367157
vn 0.281745 0.367173 -0.886456
vn -0.281745 -0.886457 0.367170
vn -0.367157 -0.281745 0.886462
vn -0.886455 -0.367173 0.281745
vn -0.281743 0.367160 0.886462
vn -0.367173 0.886456 0.281744
vn -0.886457 0.281747 0.367169
vn -0.367178 -0.886453 -0.281746
vn -0.886453 -0.281748 -0.367177
vn -0.281746 -0.367180 -0.886453
vn -0.281743 0.886457 -0.367171
vn -0.367157 0.281745 -0.886462
vn -0.886456 0.367173 -0.281745
vn 0.367172 -0.886456 0.281745
vn 0.886457 -0.281747 0.367169
vn 0.281744 -0.367159 0.886462
vn 0.281743 0.886457 0.367171
vn 0.367157 0.281745 0.886462
vn 0.886456 0.367173 0.281745
vn 0.281745 -0.886457 -0.367170
vn 0.367157 -0.281745 -0.886462
vn 0.886455 -0.367173 -0.281745
vn 0.367179 0.886453 -0.281745
vn 0.886453 0.281748 -0.367178
vn 0.281746 0.367180 -0.886453
vn -0.281745 -0.886457 0.367170
vn -0.367157 -0.281745 0.886462
vn -0.886455 -0.367173 0.281745
vn -0.281743 0.367160 0.886462
vn -0.367173 0.886456 0.281744
vn -0.886457 0.281747 0.367169
vn -0.367172 -0.886456 -0.281745
vn -0.886457 -0.281747 -0.367169
vn -0.281744 -0.367159 -0.886462
vn -0.281743 0.886457 -0.367171
vn -0.367157 0.281745 -0.886462
vn -0.886456 0.367173 -0.281745
vn 0.367178 -0.886453 0.281746
vn 0.886453 -0.281748 0.367177
vn 0.281746 -0.367180 0.886453
vn 0.281743 0.886457 0.367171
vn 0.367157 0.281745 0.886462
vn 0.886456 0.367173 0.281745
vn 0.281745 -0.886457 -0.367170
vn 0.367157 -0.281745 -0.886462
vn 0.886455 -0.367173 -0.281745
vn 0.367173 0.886456 -0.281744
vn 0.886457 0.281747 -0.367169
vn 0.281743 0.367160 -0.886462
vn -0.382672 -0.923884 -0.000000
vn -0.923889 -0.382661 -0.000000
vn -0.382650 0.000000 0.923893
vn -0.923893 0.000000 0.382650
vn -0.382672 0.923884 -0.000000
vn -0.923889 0.382661 -0.000000
vn -0.382650 0.000000 -0.923893
vn -0.923893 0.000000 -0.382650
vn 0.000000 -0.923884 -0.382672
vn 0.000000 -0.382661 -0.923889
vn 0.000000 0.923884 -0.382672
vn 0.000000 0.382661 -0.923889
vn 0.923893 0.000000 -0.382650
vn 0.382650 0.000000 -0.923893
vn 0.382672 -0.923884 -0.000000
vn 0.923889 -0.382661 -0.000000
vn 0.382672 0.923884 -0.000000
vn 0.923889 0.382661 -0.000000
vn 0.382650 0.000000 0.923893
vn 0.923893 0.000000 0.382650
vn 0.000000 -0.923884 0.382672
vn 0.000000 -0.382661 0.923889
vn 0.000000 0.923884 0.382672
vn 0.000000 0.382661 0.923889
vn -0.382672 -0.923884 -0.000000
vn -0.923889 -0.382661 -0.000000
vn -0.382672 0.000000 0.923884
vn -0.923890 0.000000 0.382659
vn -0.382673 0.923884 -0.000000
vn -0.923889 0.382661 -0.000000
vn -0.382672 0.000000 -0.923884
vn -0.923890 0.000000 -0.382659
vn 0.000000 -0.923881 -0.382681
vn 0.000000 -0.382682 -0.923880
vn 0.000000 0.923880 -0.382682
vn 0.000000 0.382683 -0.923880
vn 0.923881 -0.000003 -0.382680
vn 0.382680 0.000000 -0.923881
vn 0.382681 -0.923881 -0.000000
vn 0.923880 -0.382682 -0.000000
vn 0.382682 0.923880 0.000000
vn 0.923880 0.382683 -0.000000
vn 0.382672 0.000001 0.923884
vn 0.923890 0.000000 0.382659
vn 0.000000 -0.923881 0.382681
vn 0.000000 -0.382682 0.923880
vn 0.000000 0.923880 0.382682
vn 0.000000 0.382683 0.923880
vn -0.382681 -0.923881 0.000000
vn -0.923880 -0.382682 -0.000000
vn -0.382680 0.000000 0.923881
vn -0.923881 0.000000 0.382680
vn -0.382682 0.923880 -0.000000
vn -0.923880 0.382683 -0.000000
vn -0.382672 0.000001 -0.923884
vn -0.923890 0.000000 -0.382659
vn 0.000000 -0.923881 -0.382681
vn 0.000000 -0.382682 -0.923880
vn 0.000000 0.923880 -0.382682
vn 0.000000 0.382683 -0.923880
vn 0.923890 0.000000 -0.382659
vn 0.382672 0.000000 -0.923884
vn 0.382672 -0.923884 -0.000000
vn 0.923889 -0.382661 -0.000000
vn 0.382673 0.923884 -0.000000
vn 0.923889 0.382661 -0.000000
vn 0.382672 0.000000 0.923884
vn 0.923890 0.000000 0.382659
vn 0.000000 -0.923881 0.382681
vn 0.000000 -0.382682 0.923880
vn 0.000000 0.923880 0.382682
vn 0.000000 0.382683 0.923880
vn -0.382681 -0.923881 -0.000000
vn -0.923880 -0.382682 -0.000000
vn -0.382659 0.000000 0.923890
vn -0.923884 0.000000 0.382672
vn -0.382682 0.923880 -0.000000
vn -0.923880 0.382683 -0.000000
vn -0.382680 -0.000003 -0.923881
vn -0.923881 0.000000 -0.382680
vn -0.000000 -0.923881 -0.382681
vn 0.000000 -0.382682 -0.923880
vn 0.000000 0.923880 -0.382682
vn 0.000000 0.382683 -0.923880
vn 0.923884 0.000001 -0.382672
vn 0.382659 0.000000 -0.923890
vn 0.382681 -0.923881 -0.000000
vn 0.923880 -0.382682 -0.000000
vn 0.382682 0.923880 -0.000000
vn 0.923880 0.382683 -0.000000
vn 0.382659 0.000000 0.923890
vn 0.923884 0.000000 0.382672
vn 0.000000 -0.923884 0.382672
vn 0.000000 -0.382661 0.923889
vn 0.000000 0.923884 0.382673
vn 0.000000 0.382661 0.923889
vn -0.382681 -0.923881 -0.000000
vn -0.923880 -0.382682 -0.000000
vn -0.382659 0.000000 0.923890
vn -0.923884 0.000000 0.382672
vn -0.382682 0.923880 -0.000000
vn -0.923880 0.382683 -0.000000
vn -0.382659 0.000000 -0.923890
vn -0.923884 0.000000 -0.382672
vn 0.000000 -0.923884 -0.382672
vn 0.000000 -0.382661 -0.923889
vn 0.000000 0.923884 -0.382673
vn 0.000000 0.382661 -0.923889
vn 0.923884 0.000000 -0.382672
vn 0.382659 0.000000 -0.923890
vn 0.382681 -0.923881 -0.000000
vn 0.923880 -0.382682 -0.000000
vn 0.382682 0.923880 -0.000000
vn 0.923880 0.382683 -0.000000
vn 0.382680 -0.000003 0.923881
vn 0.923881 0.000000 0.382680
vn 0.000000 -0.923881 0.382681
vn 0.000000 -0.382682 0.923880
vn 0.000000 0.923884 0.382673
vn 0.000000 0.382661 0.923889
vn 0.000000 -1.000000 -0.000000
f 37//1 2//1 31//1
f 51//2 30//2 45//2
f 99//3 57//3 71//3
f 22//4 36//4 50//4
f 10//5 16//5 3//5
f 23//6 44//6 17//6
f 93//7 58//7 87//7
f 107//8 86//8 101//8
f 155//9 113//9 127//9
f 78//10 92//10 106//10
f 66//11 72//11 59//11
f 79//12 100//12 73//12
f 149//13 114//13 143//13
f 163//14 142//14 157//14
f 211//15 169//15 183//15
f 134//16 148//16 162//16
f 122//17 128//17 115//17
f 135//18 156//18 129//18
f 205//19 170//19 199//19
f 219//20 198//20 213//20
f 267//21 225//21 239//21
f 190//22 204//22 218//22
f 178//23 184//23 171//23
f 191//24 212//24 185//24
f 261//25 226//25 255//25
f 275//26 254//26 269//26
f 246//27 260//27 274//27
f 234//28 240//28 227//28
f 247//29 268//29 241//29
f 1//30 5//30 7//30
f 2//31 5//31 4//31
f 3//32 5//32 6//32
f 8//33 12//33 14//33
f 9//34 12//34 11//34
f 10//35 12//35 13//35
f 15//36 19//36 21//36
f 16//37 19//37 18//37
f 17//38 19//38 20//38
f 22//39 26//39 28//39
f 23//40 26//40 25//40
f 24//41 26//41 27//41
f 29//42 33//42 35//42
f 30//43 33//43 32//43
f 31//44 33//44 34//44
f 36//45 40//45 42//45
f 37//46 40//46 39//46
f 38//47 40//47 41//47
f 43//48 47//48 49//48
f 44//49 47//49 46//49
f 45//50 47//50 48//50
f 50//51 54//51 56//51
f 51//52 54//52 53//52
f 52//53 54//53 55//53
f 57//54 61//54 63//54
f 58//55 61//55 60//55
f 59//56 61//56 62//56
f 64//57 68//57 70//57
f 65//58 68//58 67//58
f 66//59 68//59 69//59
f 71//60 75//60 77//60
f 72//61 75//61 74//61
f 73//62 75//62 76//62
f 78//63 82//63 84//63
f 79//64 82//64 81//64
f 80//65 82//65 83//65
f 85//66 89//66 91//66
f 86//67 89//67 88//67
f 87//68 89//68 90//68
f 92//69 96//69 98//69
f 93//70 96//70 95//70
f 94//71 96//71 97//71
f 99//72 103//72 105//72
f 100//73 103//73 102//73
f 101//74 103//74 104//74
f 106//75 110//75 112//75
f 107//76 110//76 109//76
f 108//77 110//77 111//77
f 113//78 117//78 119//78
f 114//79 117//79 116//79
f 115//80 117//80 118//80
f 120//81 124//81 126//81
f 121//82 124//82 123//82
f 122//83 124//83 125//83
f 127//84 131//84 133//84
f 128//85 131//85 130//85
f 129//86 131//86 132//86
f 134//87 138//87 140//87
f 135//88 138//88 137//88
f 136//89 138//89 139//89
f 141//90 145//90 147//90
f 142//91 145//91 144//91
f 143//92 145//92 146//92
f 148//93 152//93 154//93
f 149//94 152//94 151//94
f 150//95 152//95 153//95
f 155//96 159//96 161//96
f 156//97 159//97 158//97
f 157//98 159//98 160//98
f 162//99 166//99 168//99
f 163//100 166//100 165//100
f 164//101 166//101 167//101
f 169//102 173//102 175//102
f 170//103 173//103 172//103
f 171//104 173//104 174//104
f 176//105 180//105 182//105
f 177//106 180//106 179//106
f 178//107 180//107 181//107
f 183//108 187//108 189//108
f 184//109 187//109 186//109
f 185//110 187//110 188//110
f 190//111 194//111 196//111
f 191//112 194//112 193//112
f 192//113 194//113 195//113
f 197//114 201//114 203//114
f 198//115 201//115 200//115
f 199//116 201//116 202//116
f 204//117 208//117 210//117
f 205//118 208//118 207//118
f 206//119 208//119 209//119
f 211//120 215//120 217//120
f 212//121 215//121 214//121
f 213//122 215//122 216//122
f 218//123 222//123 224//123
f 219//124 222//124 221//124
f 220//125 222//125 223//125
f 225//126 229//126 231//126
f 226//127 229//127 228//127
f 227//128 229//128 230//128
f 232//129 236//129 238//129
f 233//130 236//130 235//130
f 234//131 236//131 237//131
f 239//132 243//132 245//132
f 240//133 243//133 242//133
f 241//134 243//134 244//134
f 246//135 250//135 252//135
f 247//136 250//136 249//136
f 248//137 250//137 251//137
f 253//138 257//138 259//138
f 254//139 257//139 256//139
f 255//140 257//140 258//140
f 260//141 264//141 266//141
f 261//142 264//142 263//142
f 262//143 264//143 265//143
f 267//144 271//144 273//144
f 268//145 271//145 270//145
f 269//146 271//146 272//146
f 274//147 278//147 280//147
f 275//148 278//148 277//148
f 276//149 278//149 279//149
f 1//150 18//150 15//150
f 7//151 16//151 18//151
f 8//152 6//152 2//152
f 14//153 3//153 6//153
f 22//154 13//154 9//154
f 28//155 10//155 13//155
f 17//156 27//156 23//156
f 20//157 24//157 27//157
f 15//158 46//158 43//158
f 21//159 44//159 46//159
f 50//160 25//160 22//160
f 56//161 23//161 25//161
f 45//162 55//162 51//162
f 48//163 52//163 55//163
f 43//164 32//164 29//164
f 49//165 30//165 32//165
f 36//166 53//166 50//166
f 42//167 51//167 53//167
f 31//168 41//168 37//168
f 34//169 38//169 41//169
f 29//170 4//170 1//170
f 35//171 2//171 4//171
f 9//172 39//172 36//172
f 11//173 37//173 39//173
f 57//174 74//174 71//174
f 63//175 72//175 74//175
f 64//176 62//176 58//176
f 70//177 59//177 62//177
f 78//178 69//178 65//178
f 84//179 66//179 69//179
f 73//180 83//180 79//180
f 76//181 80//181 83//181
f 71//182 102//182 99//182
f 102//183 73//183 100//183
f 106//184 81//184 78//184
f 112//185 79//185 81//185
f 101//186 111//186 107//186
f 104//187 108//187 111//187
f 99//188 88//188 85//188
f 105//189 86//189 88//189
f 92//190 109//190 106//190
f 98//191 107//191 109//191
f 87//192 97//192 93//192
f 90//193 94//193 97//193
f 85//194 60//194 57//194
f 91//195 58//195 60//195
f 65//196 95//196 92//196
f 95//197 64//197 93//197
f 113//198 130//198 127//198
f 119//199 128//199 130//199
f 120//200 118//200 114//200
f 126//201 115//201 118//201
f 134//202 125//202 121//202
f 140//203 122//203 125//203
f 129//204 139//204 135//204
f 132//205 136//205 139//205
f 127//206 158//206 155//206
f 133//207 156//207 158//207
f 162//208 137//208 134//208
f 137//209 164//209 135//209
f 157//210 167//210 163//210
f 160//211 164//211 167//211
f 155//212 144//212 141//212
f 161//213 142//213 144//213
f 148//214 165//214 162//214
f 154//215 163//215 165//215
f 143//216 153//216 149//216
f 146//217 150//217 153//217
f 141//218 116//218 113//218
f 116//219 143//219 114//219
f 148//220 123//220 151//220
f 123//221 149//221 151//221
f 169//222 186//222 183//222
f 186//223 171//223 184//223
f 176//224 174//224 170//224
f 182//225 171//225 174//225
f 190//226 181//226 177//226
f 196//227 178//227 181//227
f 185//228 195//228 191//228
f 188//229 192//229 195//229
f 183//230 214//230 211//230
f 189//231 212//231 214//231
f 218//232 193//232 190//232
f 224//233 191//233 193//233
f 213//234 223//234 219//234
f 216//235 220//235 223//235
f 211//236 200//236 197//236
f 217//237 198//237 200//237
f 204//238 221//238 218//238
f 221//239 206//239 219//239
f 199//240 209//240 205//240
f 202//241 206//241 209//241
f 197//242 172//242 169//242
f 203//243 170//243 172//243
f 177//244 207//244 204//244
f 179//245 205//245 207//245
f 225//246 242//246 239//246
f 231//247 240//247 242//247
f 232//248 230//248 226//248
f 238//249 227//249 230//249
f 246//250 237//250 233//250
f 252//251 234//251 237//251
f 241//252 251//252 247//252
f 244//253 248//253 251//253
f 239//254 270//254 267//254
f 245//255 268//255 270//255
f 274//256 249//256 246//256
f 280//257 247//257 249//257
f 269//258 279//258 275//258
f 272//259 276//259 279//259
f 267//260 256//260 253//260
f 256//261 269//261 254//261
f 260//262 277//262 274//262
f 266//263 275//263 277//263
f 255//264 265//264 261//264
f 258//265 262//265 265//265
f 253//266 228//266 225//266
f 259//267 226//267 228//267
f 233//268 263//268 260//268
f 235//269 261//269 263//269
f 43//270 1//270 15//270
f 37//271 8//271 2//271
f 51//272 38//272 30//272
f 99//273 85//273 57//273
f 22//274 9//274 36//274
f 10//275 24//275 16//275
f 23//276 52//276 44//276
f 93//277 64//277 58//277
f 107//278 94//278 86//278
f 155//279 141//279 113//279
f 78//280 65//280 92//280
f 66//281 80//281 72//281
f 79//282 108//282 100//282
f 149//283 120//283 114//283
f 163//284 150//284 142//284
f 211//285 197//285 169//285
f 134//286 121//286 148//286
f 122//287 136//287 128//287
f 135//288 164//288 156//288
f 205//289 176//289 170//289
f 219//290 206//290 198//290
f 267//291 253//291 225//291
f 190//292 177//292 204//292
f 178//293 192//293 184//293
f 191//294 220//294 212//294
f 261//295 232//295 226//295
f 275//296 262//296 254//296
f 246//297 233//297 260//297
f 234//298 248//298 240//298
f 247//299 276//299 268//299
f 1//300 4//300 5//300
f 2//301 6//301 5//301
f 3//302 7//302 5//302
f 8//303 11//303 12//303
f 9//304 13//304 12//304
f 10//305 14//305 12//305
f 15//306 18//306 19//306
f 16//307 20//307 19//307
f 17//308 21//308 19//308
f 22//309 25//309 26//309
f 23//310 27//310 26//310
f 24//311 28//311 26//311
f 29//312 32//312 33//312
f 30//313 34//313 33//313
f 31//314 35//314 33//314
f 36//315 39//315 40//315
f 37//316 41//316 40//316
f 38//317 42//317 40//317
f 43//318 46//318 47//318
f 44//319 48//319 47//319
f 45//320 49//320 47//320
f 50//321 53//321 54//321
f 51//322 55//322 54//322
f 52//323 56//323 54//323
f 57//324 60//324 61//324
f 58//325 62//325 61//325
f 59//326 63//326 61//326
f 64//327 67//327 68//327
f 65//328 69//328 68//328
f 66//329 70//329 68//329
f 71//330 74//330 75//330
f 72//331 76//331 75//331
f 73//332 77//332 75//332
f 78//333 81//333 82//333
f 79//334 83//334 82//334
f 80//335 84//335 82//335
f 85//336 88//336 89//336
f 86//337 90//337 89//337
f 87//338 91//338 89//338
f 92//339 95//339 96//339
f 93//340 97//340 96//340
f 94//341 98//341 96//341
f 99//342 102//342 103//342
f 100//343 104//343 103//343
f 101//344 105//344 103//344
f 106//345 109//345 110//345
f 107//346 111//346 110//346
f 108//347 112//347 110//347
f 113//348 116//348 117//348
f 114//349 118//349 117//349
f 115//350 119//350 117//350
f 120//351 123//351 124//351
f 121//352 125//352 124//352
f 122//353 126//353 124//353
f 127//354 130//354 131//354
f 128//355 132//355 131//355
f 129//356 133//356 131//356
f 134//357 137//357 138//357
f 135//358 139//358 138//358
f 136//359 140//359 138//359
f 141//360 144//360 145//360
f 142//361 146//361 145//361
f 143//362 147//362 145//362
f 148//363 151//363 152//363
f 149//364 153//364 152//364
f 150//365 154//365 152//365
f 155//366 158//366 159//366
f 156//367 160//367 159//367
f 157//368 161//368 159//368
f 162//369 165//369 166//369
f 163//370 167//370 166//370
f 164//371 168//371 166//371
f 169//372 172//372 173//372
f 170//373 174//373 173//373
f 171//374 175//374 173//374
f 176//375 179//375 180//375
f 177//376 181//376 180//376
f 178//377 182//377 180//377
f 183//378 186//378 187//378
f 184//379 188//379 187//379
f 185//380 189//380 187//380
f 190//381 193//381 194//381
f 191//382 195//382 194//382
f 192//383 196//383 194//383
f 197//384 200//384 201//384
f 198//385 202//385 201//385
f 199//386 203//386 201//386
f 204//387 207//387 208//387
f 205//388 209//388 208//388
f 206//389 210//389 208//389
f 211//390 214//390 215//390
f 212//391 216//391 215//391
f 213//392 217//392 215//392
f 218//393 221//393 222//393
f 219//394 223//394 222//394
f 220//395 224//395 222//395
f 225//396 228//396 229//396
f 226//397 230//397 229//397
f 227//398 231//398 229//398
f 232//399 235//399 236//399
f 233//400 237//400 236//400
f 234//401 238//401 236//401
f 239//402 242//402 243//402
f 240//403 244//403 243//403
f 241//404 245//404 243//404
f 246//405 249//405 250//405
f 247//406 251//406 250//406
f 248//407 252//407 250//407
f 253//408 256//408 257//408
f 254//409 258//409 257//409
f 255//410 259//410 257//410
f 260//411 263//411 264//411
f 261//412 265//412 264//412
f 262//413 266//413 264//413
f 267//414 270//414 271//414
f 268//415 272//415 271//415
f 269//416 273//416 271//416
f 274//417 277//417 278//417
f 275//418 279//418 278//418
f 276//419 280//419 278//419
f 1//420 7//420 18//420
f 7//421 3//421 16//421
f 8//422 14//422 6//422
f 14//423 10//423 3//423
f 22//424 28//424 13//424
f 28//425 24//425 10//425
f 17//426 20//426 27//426
f 20//427 16//427 24//427
f 15//428 21//428 46//428
f 21//429 17//429 44//429
f 50//430 56//430 25//430
f 56//431 52//431 23//431
f 45//432 48//432 55//432
f 48//433 44//433 52//433
f 43//434 49//434 32//434
f 49//435 45//435 30//435
f 36//436 42//436 53//436
f 42//437 38//437 51//437
f 31//438 34//438 41//438
f 34//439 30//439 38//439
f 29//440 35//440 4//440
f 35//441 31//441 2//441
f 9//442 11//442 39//442
f 11//443 8//443 37//443
f 57//444 63//444 74//444
f 63//445 59//445 72//445
f 64//446 70//446 62//446
f 70//447 66//447 59//447
f 78//448 84//448 69//448
f 84//449 80//449 66//449
f 73//450 76//450 83//450
f 76//451 72//451 80//451
f 71//452 77//452 102//452
f 102//453 77//453 73//453
f 106//454 112//454 81//454
f 112//455 108//455 79//455
f 101//456 104//456 111//456
f 104//457 100//457 108//457
f 99//458 105//458 88//458
f 105//459 101//459 86//459
f 92//460 98//460 109//460
f 98//461 94//461 107//461
f 87//462 90//462 97//462
f 90//463 86//463 94//463
f 85//464 91//464 60//464
f 91//465 87//465 58//465
f 65//466 67//466 95//466
f 95//467 67//467 64//467
f 113//468 119//468 130//468
f 119//469 115//469 128//469
f 120//470 126//470 118//470
f 126//471 122//471 115//471
f 134//472 140//472 125//472
f 140//473 136//473 122//473
f 129//474 132//474 139//474
f 132//475 128//475 136//475
f 127//476 133//476 158//476
f 133//477 129//477 156//477
f 162//478 168//478 137//478
f 137//479 168//479 164//479
f 157//480 160//480 167//480
f 160//481 156//481 164//481
f 155//482 161//482 144//482
f 161//483 157//483 142//483
f 148//484 154//484 165//484
f 154//485 150//485 163//485
f 143//486 146//486 153//486
f 146//487 142//487 150//487
f 141//488 147//488 116//488
f 116//489 147//489 143//489
f 148//490 121//490 123//490
f 123//491 120//491 149//491
f 169//492 175//492 186//492
f 186//493 175//493 171//493
f 176//494 182//494 174//494
f 182//495 178//495 171//495
f 190//496 196//496 181//496
f 196//497 192//497 178//497
f 185//498 188//498 195//498
f 188//499 184//499 192//499
f 183//500 189//500 214//500
f 189//501 185//501 212//501
f 218//502 224//502 193//502
f 224//503 220//503 191//503
f 213//504 216//504 223//504
f 216//505 212//505 220//505
f 211//506 217//506 200//506
f 217//507 213//507 198//507
f 204//508 210//508 221//508
f 221//509 210//509 206//509
f 199//510 202//510 209//510
f 202//511 198//511 206//511
f 197//512 203//512 172//512
f 203//513 199//513 170//513
f 177//514 179//514 207//514
f 179//515 176//515 205//515
f 225//516 231//516 242//516
f 231//517 227//517 240//517
f 232//518 238//518 230//518
f 238//519 234//519 227//519
f 246//520 252//520 237//520
f 252//521 248//521 234//521
f 241//522 244//522 251//522
f 244//523 240//523 248//523
f 239//524 245//524 270//524
f 245//525 241//525 268//525
f 274//526 280//526 249//526
f 280//527 276//527 247//527
f 269//528 272//528 279//528
f 272//529 268//529 276//529
f 267//530 273//530 256//530
f 256//531 273//531 269//531
f 260//532 266//532 277//532
f 266//533 262//533 275//533
f 255//534 258//534 265//534
f 258//535 254//535 262//535
f 253//536 259//536 228//536
f 259//537 255//537 226//537
f 233//538 235//538 263//538
f 235//539 232//539 261//539
f 43//540 29//540 1//540
