# Original asset generated in Blender
v -5.083500 0.086000 5.091000
v -5.083500 0.095000 5.100000
v -5.092500 0.095000 5.091000
v -5.083500 0.088636 5.097363
v -5.088696 0.089804 5.096196
v -5.089864 0.095000 5.097363
v -5.089864 0.088636 5.091000
v -5.083500 0.095000 5.100000
v -5.083500 0.104000 5.091000
v -5.092500 0.095000 5.091000
v -5.083500 0.101364 5.097363
v -5.088696 0.100196 5.096196
v -5.089864 0.101364 5.091000
v -5.089864 0.095000 5.097363
v -5.083500 0.086000 -5.091000
v -5.092500 0.095000 -5.091000
v -5.083500 0.095000 -5.100000
v -5.089864 0.088636 -5.091000
v -5.088696 0.089804 -5.096196
v -5.089864 0.095000 -5.097363
v -5.083500 0.088636 -5.097363
v -5.083500 0.104000 -5.091000
v -5.083500 0.095000 -5.100000
v -5.092500 0.095000 -5.091000
v -5.083500 0.101364 -5.097363
v -5.088696 0.100196 -5.096196
v -5.089864 0.095000 -5.097363
v -5.089864 0.101364 -5.091000
v -5.076500 0.086000 5.091000
v -5.067500 0.095000 5.091000
v -5.076500 0.095000 5.100000
v -5.070136 0.088636 5.091000
v -5.071304 0.089804 5.096196
v -5.070136 0.095000 5.097363
v -5.076500 0.088636 5.097363
v -5.076500 0.104000 5.091000
v -5.076500 0.095000 5.100000
v -5.067500 0.095000 5.091000
v -5.076500 0.101364 5.097363
v -5.071304 0.100196 5.096196
v -5.070136 0.095000 5.097363
v -5.070136 0.101364 5.091000
v -5.076500 0.086000 -5.091000
v -5.076500 0.095000 -5.100000
v -5.067500 0.095000 -5.091000
v -5.076500 0.088636 -5.097363
v -5.071304 0.089804 -5.096196
v -5.070136 0.095000 -5.097363
v -5.070136 0.088636 -5.091000
v -5.076500 0.104000 -5.091000
v -5.067500 0.095000 -5.091000
v -5.076500 0.095000 -5.100000
v -5.070136 0.101364 -5.091000
v -5.071304 0.100196 -5.096196
v -5.070136 0.095000 -5.097363
v -5.076500 0.101364 -5.097363
v 5.076500 0.086000 5.091000
v 5.076500 0.095000 5.100000
v 5.067500 0.095000 5.091000
v 5.076500 0.088636 5.097363
v 5.071304 0.089804 5.096196
v 5.070136 0.095000 5.097363
v 5.070136 0.088636 5.091000
v 5.076500 0.095000 5.100000
v 5.076500 0.104000 5.091000
v 5.067500 0.095000 5.091000
v 5.076500 0.101364 5.097363
v 5.071304 0.100196 5.096196
v 5.070136 0.101364 5.091000
v 5.070136 0.095000 5.097363
v 5.076500 0.086000 -5.091000
v 5.067500 0.095000 -5.091000
v 5.076500 0.095000 -5.100000
v 5.070136 0.088636 -5.091000
v 5.071304 0.089804 -5.096196
v 5.070136 0.095000 -5.097363
v 5.076500 0.088636 -5.097363
v 5.076500 0.104000 -5.091000
v 5.076500 0.095000 -5.100000
v 5.067500 0.095000 -5.091000
v 5.076500 0.101364 -5.097363
v 5.071304 0.100196 -5.096196
v 5.070136 0.095000 -5.097363
v 5.070136 0.101364 -5.091000
v 5.083500 0.086000 5.091000
v 5.092500 0.095000 5.091000
v 5.083500 0.095000 5.100000
v 5.089864 0.088636 5.091000
v 5.088696 0.089804 5.096196
v 5.089864 0.095000 5.097363
v 5.083500 0.088636 5.097363
v 5.083500 0.104000 5.091000
v 5.083500 0.095000 5.100000
v 5.092500 0.095000 5.091000
v 5.083500 0.101364 5.097363
v 5.088696 0.100196 5.096196
v 5.089864 0.095000 5.097363
v 5.089864 0.101364 5.091000
v 5.083500 0.086000 -5.091000
v 5.083500 0.095000 -5.100000
v 5.092500 0.095000 -5.091000
v 5.083500 0.088636 -5.097363
v 5.088696 0.089804 -5.096196
v 5.089864 0.095000 -5.097363
v 5.089864 0.088636 -5.091000
v 5.083500 0.104000 -5.091000
v 5.092500 0.095000 -5.091000
v 5.083500 0.095000 -5.100000
v 5.089864 0.101364 -5.091000
v 5.088696 0.100196 -5.096196
v 5.089864 0.095000 -5.097363
v 5.083500 0.101364 -5.097363
v -5.091000 0.086000 5.083500
v -5.091000 0.095000 5.092500
v -5.100000 0.095000 5.083500
v -5.091000 0.088636 5.089864
v -5.096196 0.089804 5.088696
v -5.097364 0.095000 5.089864
v -5.097364 0.088636 5.083500
v -5.091000 0.095000 5.092500
v -5.091000 0.104000 5.083500
v -5.100000 0.095000 5.083500
v -5.091000 0.101364 5.089864
v -5.096196 0.100196 5.088696
v -5.097364 0.101364 5.083500
v -5.097364 0.095000 5.089864
v -5.091000 0.086000 5.076500
v -5.100000 0.095000 5.076500
v -5.091000 0.095000 5.067500
v -5.097364 0.088636 5.076500
v -5.096196 0.089804 5.071304
v -5.097364 0.095000 5.070136
v -5.091000 0.088636 5.070136
v -5.091000 0.104000 5.076500
v -5.091000 0.095000 5.067500
v -5.100000 0.095000 5.076500
v -5.091000 0.101364 5.070136
v -5.096196 0.100196 5.071304
v -5.097364 0.095000 5.070136
v -5.097364 0.101364 5.076500
v 5.091001 0.086000 5.083500
v 5.100000 0.095000 5.083500
v 5.091001 0.095000 5.092500
v 5.097365 0.088636 5.083500
v 5.096197 0.089804 5.088696
v 5.097365 0.095000 5.089864
v 5.091002 0.088636 5.089864
v 5.091001 0.104000 5.083500
v 5.091001 0.095000 5.092500
v 5.100000 0.095000 5.083500
v 5.091001 0.101364 5.089864
v 5.096196 0.100196 5.088696
v 5.097364 0.095000 5.089864
v 5.097364 0.101364 5.083500
v 5.091001 0.086000 5.076500
v 5.091001 0.095000 5.067500
v 5.100000 0.095000 5.076500
v 5.091001 0.088636 5.070136
v 5.096196 0.089804 5.071304
v 5.097364 0.095000 5.070136
v 5.097364 0.088636 5.076500
v 5.091001 0.104000 5.076500
v 5.100000 0.095000 5.076500
v 5.091001 0.095000 5.067500
v 5.097365 0.101364 5.076500
v 5.096197 0.100196 5.071304
v 5.097365 0.095000 5.070136
v 5.091002 0.101364 5.070136
v -5.091000 0.086000 -5.076500
v -5.091000 0.095000 -5.067500
v -5.100000 0.095000 -5.076500
v -5.091000 0.088636 -5.070136
v -5.096196 0.089804 -5.071304
v -5.097364 0.095000 -5.070136
v -5.097364 0.088636 -5.076500
v -5.091000 0.095000 -5.067500
v -5.091000 0.104000 -5.076500
v -5.100000 0.095000 -5.076500
v -5.091000 0.101364 -5.070136
v -5.096196 0.100196 -5.071304
v -5.097364 0.101364 -5.076500
v -5.097364 0.095000 -5.070136
v -5.091000 0.086000 -5.083500
v -5.100000 0.095000 -5.083500
v -5.091000 0.095000 -5.092500
v -5.097364 0.088636 -5.083500
v -5.096196 0.089804 -5.088696
v -5.097364 0.095000 -5.089864
v -5.091000 0.088636 -5.089864
v -5.091000 0.104000 -5.083500
v -5.091000 0.095000 -5.092500
v -5.100000 0.095000 -5.083500
v -5.091000 0.101364 -5.089864
v -5.096196 0.100196 -5.088696
v -5.097364 0.095000 -5.089864
v -5.097364 0.101364 -5.083500
v 5.091001 0.086000 -5.076500
v 5.100000 0.095000 -5.076500
v 5.091001 0.095000 -5.067500
v 5.097365 0.088636 -5.076500
v 5.096197 0.089804 -5.071304
v 5.097365 0.095000 -5.070136
v 5.091002 0.088636 -5.070136
v 5.091001 0.104000 -5.076500
v 5.091001 0.095000 -5.067500
v 5.100000 0.095000 -5.076500
v 5.091001 0.101364 -5.070136
v 5.096196 0.100196 -5.071304
v 5.097364 0.095000 -5.070136
v 5.097364 0.101364 -5.076500
v 5.091001 0.086000 -5.083500
v 5.091001 0.095000 -5.092500
v 5.100000 0.095000 -5.083500
v 5.091001 0.088636 -5.089864
v 5.096196 0.089804 -5.088696
v 5.097364 0.095000 -5.089864
v 5.097364 0.088636 -5.083500
v 5.091001 0.104000 -5.083500
v 5.100000 0.095000 -5.083500
v 5.091001 0.095000 -5.092500
v 5.097365 0.101364 -5.083500
v 5.096197 0.100196 -5.088696
v 5.097365 0.095000 -5.089864
v 5.091002 0.101364 -5.089864
vn 0.000000 0.000000 1.000000
vn 1.000000 0.000000 -0.000000
vn 0.000000 -1.000000 -0.000000
vn 0.000000 1.000000 -0.000000
vn -1.000000 0.000000 -0.000000
vn 0.000000 0.000000 -1.000000
vn 0.000000 0.000000 1.000000
vn 1.000000 0.000000 -0.000000
vn 0.000000 -1.000000 -0.000000
vn 0.000000 1.000000 -0.000000
vn -1.000000 0.000000 -0.000000
vn 0.000000 0.000000 -1.000000
vn 0.000000 0.000000 1.000000
vn 1.000000 0.000000 -0.000000
vn 0.000000 -1.000000 -0.000000
vn 0.000000 1.000000 -0.000000
vn -1.000000 0.000000 -0.000000
vn 0.000000 0.000000 -1.000000
vn 0.000000 0.000000 1.000000
vn 1.000000 0.000000 -0.000000
vn 0.000000 1.000000 -0.000000
vn -1.000000 0.000000 -0.000000
vn 0.000000 0.000000 -1.000000
vn -0.367198 -0.886443 0.281752
vn -0.281748 -0.367227 0.886432
vn -0.886440 -0.281749 0.367208
vn -0.367227 0.281748 0.886432
vn -0.281749 0.886440 0.367208
vn -0.886443 0.367198 0.281752
vn -0.281749 -0.886440 -0.367208
vn -0.886443 -0.367198 -0.281752
vn -0.367227 -0.281748 -0.886432
vn -0.367198 0.886443 -0.281752
vn -0.281748 0.367227 -0.886432
vn -0.886440 0.281749 -0.367208
vn 0.281749 -0.886440 0.367208
vn 0.886443 -0.367198 0.281752
vn 0.367227 -0.281748 0.886432
vn 0.367198 0.886443 0.281752
vn 0.281748 0.367227 0.886432
vn 0.886440 0.281749 0.367208
vn 0.367198 -0.886443 -0.281752
vn 0.281748 -0.367227 -0.886432
vn 0.886440 -0.281749 -0.367208
vn 0.281749 0.886440 -0.367208
vn 0.886443 0.367198 -0.281752
vn 0.367227 0.281748 -0.886432
vn -0.367199 -0.886433 0.281782
vn -0.281774 -0.367224 0.886425
vn -0.886426 -0.281817 0.367191
vn -0.367228 0.281777 0.886423
vn -0.281775 0.886433 0.367205
vn -0.886429 0.367180 0.281821
vn -0.281775 -0.886433 -0.367205
vn -0.886429 -0.367180 -0.281821
vn -0.367228 -0.281777 -0.886423
vn -0.367199 0.886433 -0.281782
vn -0.281774 0.367224 -0.886425
vn -0.886426 0.281817 -0.367191
vn 0.281775 -0.886433 0.367205
vn 0.886429 -0.367180 0.281821
vn 0.367228 -0.281777 0.886423
vn 0.367199 0.886433 0.281782
vn 0.281774 0.367224 0.886425
vn 0.886426 0.281817 0.367191
vn 0.367199 -0.886433 -0.281782
vn 0.281774 -0.367224 -0.886425
vn 0.886426 -0.281817 -0.367191
vn 0.281775 0.886433 -0.367205
vn 0.886429 0.367180 -0.281821
vn 0.367228 0.281777 -0.886423
vn -0.367180 -0.886451 0.281750
vn -0.281741 -0.367171 0.886458
vn -0.886451 -0.281746 0.367185
vn -0.367171 0.281741 0.886458
vn -0.281746 0.886451 0.367185
vn -0.886451 0.367180 0.281750
vn -0.281746 -0.886451 -0.367185
vn -0.886451 -0.367180 -0.281750
vn -0.367171 -0.281741 -0.886458
vn -0.367180 0.886451 -0.281750
vn -0.281741 0.367171 -0.886458
vn -0.886451 0.281746 -0.367185
vn 0.281768 -0.886459 0.367147
vn 0.886487 -0.367051 0.281805
vn 0.367126 -0.281764 0.886469
vn 0.367181 0.886441 0.281780
vn 0.281768 0.367168 0.886451
vn 0.886436 0.281814 0.367168
vn 0.367181 -0.886441 -0.281780
vn 0.281768 -0.367168 -0.886451
vn 0.886436 -0.281814 -0.367168
vn 0.281768 0.886459 -0.367147
vn 0.886487 0.367051 -0.281805
vn 0.367126 0.281764 -0.886469
vn -0.367180 -0.886451 0.281750
vn -0.281741 -0.367171 0.886458
vn -0.886451 -0.281746 0.367185
vn -0.367171 0.281741 0.886458
vn -0.281746 0.886451 0.367185
vn -0.886451 0.367180 0.281750
vn -0.281746 -0.886451 -0.367185
vn -0.886451 -0.367180 -0.281750
vn -0.367171 -0.281741 -0.886458
vn -0.367180 0.886451 -0.281750
vn -0.281741 0.367171 -0.886458
vn -0.886451 0.281746 -0.367185
vn 0.281768 -0.886459 0.367147
vn 0.886487 -0.367051 0.281805
vn 0.367126 -0.281764 0.886469
vn 0.367181 0.886441 0.281780
vn 0.281768 0.367168 0.886451
vn 0.886436 0.281814 0.367168
vn 0.367181 -0.886441 -0.281780
vn 0.281768 -0.367168 -0.886451
vn 0.886436 -0.281814 -0.367168
vn 0.281768 0.886459 -0.367147
vn 0.886487 0.367051 -0.281805
vn 0.367126 0.281764 -0.886469
vn -0.382683 -0.923880 -0.000000
vn -0.923880 -0.382683 0.000000
vn -0.375911 0.187956 0.907394
vn -0.923868 0.000000 0.382713
vn -0.382683 0.923880 -0.000000
vn -0.923880 0.382683 -0.000000
vn -0.382732 0.000000 -0.923859
vn -0.923868 0.000000 -0.382713
vn 0.000000 -0.923868 -0.382713
vn 0.000000 -0.382732 -0.923859
vn 0.000000 0.923868 -0.382713
vn 0.000000 0.382732 -0.923859
vn 0.923868 0.000000 -0.382713
vn 0.375911 0.187955 -0.907394
vn 0.382683 -0.923880 -0.000000
vn 0.923880 -0.382683 -0.000000
vn 0.382683 0.923880 -0.000000
vn 0.923880 0.382683 0.000000
vn 0.382732 0.000000 0.923859
vn 0.923868 0.000000 0.382713
vn 0.000000 -0.923868 0.382713
vn 0.000000 -0.382732 0.923859
vn 0.000000 0.923867 0.382713
vn 0.000000 0.382732 0.923859
vn -0.382688 -0.923878 -0.000000
vn -0.923884 -0.382673 -0.000000
vn -0.382737 0.000000 0.923857
vn -0.923872 0.000000 0.382702
vn -0.382688 0.923878 -0.000000
vn -0.923884 0.382673 -0.000000
vn -0.382737 0.000000 -0.923857
vn -0.923872 0.000000 -0.382702
vn 0.000000 -0.923868 -0.382713
vn 0.000000 -0.382732 -0.923859
vn 0.000000 0.923868 -0.382713
vn 0.000000 0.382732 -0.923859
vn 0.923872 0.000000 -0.382702
vn 0.382737 0.000000 -0.923857
vn 0.382688 -0.923878 -0.000000
vn 0.923884 -0.382673 -0.000000
vn 0.382688 0.923878 -0.000000
vn 0.923884 0.382673 -0.000000
vn 0.382737 0.000000 0.923857
vn 0.923872 0.000000 0.382702
vn 0.000000 -0.923868 0.382713
vn 0.000000 -0.382732 0.923859
vn 0.000000 0.923868 0.382713
vn 0.000000 0.382732 0.923859
vn -0.382683 -0.923880 0.000000
vn -0.923880 -0.382683 -0.000000
vn -0.382673 0.000000 0.923884
vn -0.703717 -0.647930 0.291494
vn -0.382683 0.923880 -0.000000
vn -0.923880 0.382683 -0.000000
vn -0.382673 0.000000 -0.923884
vn -0.703717 0.647930 -0.291494
vn 0.000000 -0.923878 -0.382688
vn 0.000000 -0.382673 -0.923884
vn 0.000000 0.923878 -0.382688
vn 0.000000 0.382673 -0.923884
vn 0.923931 0.000000 -0.382560
vn 0.001953 -0.999987 -0.004716
vn 0.382639 -0.923898 -0.000052
vn 0.923933 -0.382555 -0.000000
vn 0.382639 0.923898 0.000052
vn 0.923933 0.382555 -0.000000
vn 0.382678 0.000000 0.923882
vn 0.001953 0.999998 0.000809
vn 0.000000 -0.923878 0.382688
vn 0.000000 -0.382673 0.923884
vn 0.000000 0.923878 0.382688
vn 0.000000 0.382673 0.923884
vn -0.382683 -0.923880 0.000000
vn -0.923880 -0.382683 -0.000000
vn -0.382673 0.000000 0.923884
vn -0.703717 -0.647930 0.291494
vn -0.382683 0.923880 -0.000000
vn -0.923880 0.382683 -0.000000
vn -0.382673 0.000000 -0.923884
vn -0.703717 0.647930 -0.291494
vn 0.000000 -0.923878 -0.382688
vn 0.000000 -0.382673 -0.923884
vn 0.000000 0.923878 -0.382688
vn 0.000000 0.382673 -0.923884
vn 0.923931 0.000000 -0.382560
vn 0.001953 -0.999987 -0.004716
vn 0.382639 -0.923898 -0.000052
vn 0.923933 -0.382555 -0.000000
vn 0.382639 0.923898 0.000052
vn 0.923933 0.382555 -0.000000
vn 0.382678 0.000000 0.923882
vn 0.001953 0.999998 0.000809
vn 0.000000 -0.923878 0.382688
vn 0.000000 -0.382673 0.923884
vn 0.000000 0.923878 0.382688
vn 0.000000 0.382673 0.923884
vn 0.000000 -1.000000 -0.000000
vn 0.000000 0.000000 1.000000
vn 1.000000 0.000000 -0.000000
vn 0.000000 -1.000000 -0.000000
vn 0.000000 1.000000 -0.000000
vn -1.000000 0.000000 -0.000000
vn 0.000000 0.000000 -1.000000
vn 0.000000 0.000000 1.000000
vn 1.000000 0.000000 -0.000000
vn 0.000000 -1.000000 -0.000000
vn 0.000000 1.000000 -0.000000
vn -1.000000 0.000000 -0.000000
vn 0.000000 0.000000 -1.000000
vn 0.000000 0.000000 1.000000
vn 1.000000 0.000000 -0.000000
vn 0.000000 -1.000000 -0.000000
vn 0.000000 1.000000 -0.000000
vn -1.000000 0.000000 -0.000000
vn 0.000000 0.000000 -1.000000
vn 0.000000 0.000000 1.000000
vn 1.000000 0.000000 -0.000000
vn 0.000000 1.000000 -0.000000
vn -1.000000 0.000000 -0.000000
vn 0.000000 0.000000 -1.000000
vn -0.281749 -0.886440 0.367208
vn -0.367227 -0.281748 0.886432
vn -0.886443 -0.367198 0.281752
vn -0.281748 0.367227 0.886432
vn -0.367198 0.886443 0.281752
vn -0.886440 0.281748 0.367208
vn -0.367198 -0.886443 -0.281752
vn -0.886440 -0.281749 -0.367208
vn -0.281748 -0.367227 -0.886432
vn -0.281749 0.886440 -0.367208
vn -0.367227 0.281748 -0.886432
vn -0.886443 0.367198 -0.281752
vn 0.367198 -0.886443 0.281752
vn 0.886440 -0.281749 0.367208
vn 0.281748 -0.367227 0.886432
vn 0.281749 0.886440 0.367208
vn 0.367227 0.281748 0.886432
vn 0.886443 0.367198 0.281752
vn 0.281749 -0.886440 -0.367208
vn 0.367227 -0.281748 -0.886432
vn 0.886443 -0.367198 -0.281752
vn 0.367198 0.886443 -0.281752
vn 0.886440 0.281749 -0.367208
vn 0.281748 0.367227 -0.886432
vn -0.281775 -0.886433 0.367205
vn -0.367228 -0.281777 0.886423
vn -0.886429 -0.367180 0.281821
vn -0.281774 0.367224 0.886425
vn -0.367199 0.886433 0.281782
vn -0.886426 0.281817 0.367191
vn -0.367199 -0.886433 -0.281782
vn -0.886426 -0.281817 -0.367191
vn -0.281774 -0.367224 -0.886425
vn -0.281775 0.886433 -0.367205
vn -0.367228 0.281777 -0.886423
vn -0.886429 0.367180 -0.281821
vn 0.367199 -0.886433 0.281782
vn 0.886426 -0.281817 0.367191
vn 0.281774 -0.367224 0.886425
vn 0.281775 0.886433 0.367205
vn 0.367228 0.281777 0.886423
vn 0.886429 0.367180 0.281821
vn 0.281775 -0.886433 -0.367205
vn 0.367228 -0.281777 -0.886423
vn 0.886429 -0.367180 -0.281821
vn 0.367199 0.886433 -0.281782
vn 0.886426 0.281817 -0.367191
vn 0.281774 0.367224 -0.886425
vn -0.281746 -0.886451 0.367185
vn -0.367171 -0.281741 0.886458
vn -0.886451 -0.367180 0.281750
vn -0.281741 0.367171 0.886458
vn -0.367180 0.886451 0.281750
vn -0.886451 0.281746 0.367185
vn -0.367180 -0.886451 -0.281750
vn -0.886451 -0.281746 -0.367185
vn -0.281741 -0.367171 -0.886458
vn -0.281746 0.886451 -0.367185
vn -0.367171 0.281741 -0.886458
vn -0.886451 0.367180 -0.281750
vn 0.367135 -0.886462 0.281774
vn 0.886487 -0.281800 0.367056
vn 0.281763 -0.367133 0.886467
vn 0.281772 0.886443 0.367182
vn 0.367173 0.281770 0.886448
vn 0.886437 0.367163 0.281819
vn 0.281772 -0.886443 -0.367182
vn 0.367173 -0.281770 -0.886448
vn 0.886437 -0.367163 -0.281819
vn 0.367135 0.886462 -0.281774
vn 0.886487 0.281800 -0.367056
vn 0.281763 0.367133 -0.886467
vn -0.281746 -0.886451 0.367185
vn -0.367171 -0.281741 0.886458
vn -0.886451 -0.367180 0.281750
vn -0.281741 0.367171 0.886458
vn -0.367180 0.886451 0.281750
vn -0.886451 0.281746 0.367185
vn -0.367180 -0.886451 -0.281750
vn -0.886451 -0.281746 -0.367185
vn -0.281741 -0.367171 -0.886458
vn -0.281746 0.886451 -0.367185
vn -0.367171 0.281741 -0.886458
vn -0.886451 0.367180 -0.281750
vn 0.367135 -0.886462 0.281774
vn 0.886487 -0.281800 0.367056
vn 0.281763 -0.367133 0.886467
vn 0.281772 0.886443 0.367182
vn 0.367173 0.281770 0.886448
vn 0.886437 0.367163 0.281819
vn 0.281772 -0.886443 -0.367182
vn 0.367173 -0.281770 -0.886448
vn 0.886437 -0.367163 -0.281819
vn 0.367135 0.886462 -0.281774
vn 0.886487 0.281800 -0.367056
vn 0.281763 0.367133 -0.886467
vn -0.382683 -0.923880 0.000000
vn -0.923880 -0.382683 -0.000000
vn -0.375911 0.187956 0.907394
vn -0.838708 0.419354 0.347435
vn -0.382683 0.923880 -0.000000
vn -0.923880 0.382683 -0.000000
vn -0.375911 -0.187955 -0.907394
vn -0.923868 0.000000 -0.382713
vn 0.000000 -0.923868 -0.382713
vn 0.000000 -0.382732 -0.923859
vn 0.000000 0.923868 -0.382713
vn 0.000000 0.382732 -0.923859
vn 0.923868 0.000000 -0.382713
vn 0.382732 0.000000 -0.923859
vn 0.382683 -0.923880 -0.000000
vn 0.923880 -0.382683 -0.000000
vn 0.382683 0.923880 0.000000
vn 0.923880 0.382683 -0.000000
vn 0.375911 -0.187955 0.907394
vn 0.923868 0.000000 0.382713
vn 0.000000 -0.923868 0.382713
vn 0.000000 -0.382732 0.923859
vn 0.000000 0.923867 0.382713
vn 0.000000 0.382732 0.923859
vn -0.382688 -0.923878 -0.000000
vn -0.923884 -0.382673 -0.000000
vn -0.382737 0.000000 0.923857
vn -0.923872 0.000000 0.382702
vn -0.382688 0.923878 -0.000000
vn -0.923884 0.382673 -0.000000
vn -0.382737 0.000000 -0.923857
vn -0.923872 0.000000 -0.382702
vn 0.000000 -0.923868 -0.382713
vn 0.000000 -0.382732 -0.923859
vn 0.000000 0.923868 -0.382713
vn 0.000000 0.382732 -0.923859
vn 0.923872 0.000000 -0.382702
vn 0.382737 0.000000 -0.923857
vn 0.382688 -0.923878 -0.000000
vn 0.923884 -0.382673 -0.000000
vn 0.382688 0.923878 -0.000000
vn 0.923884 0.382673 -0.000000
vn 0.382737 0.000000 0.923857
vn 0.923872 0.000000 0.382702
vn 0.000000 -0.923868 0.382713
vn 0.000000 -0.382732 0.923859
vn 0.000000 0.923868 0.382713
vn 0.000000 0.382732 0.923859
vn -0.382683 -0.923880 -0.000000
vn -0.923880 -0.382684 0.000000
vn -0.357398 -0.357398 0.862863
vn -0.923878 0.000000 0.382688
vn -0.382683 0.923880 0.000000
vn -0.923880 0.382684 -0.000000
vn -0.357398 0.357398 -0.862863
vn -0.923878 0.000000 -0.382688
vn 0.000000 -0.923878 -0.382688
vn 0.000000 -0.382673 -0.923884
vn 0.000000 0.923878 -0.382688
vn 0.000000 0.382673 -0.923884
vn 0.001953 -0.999998 -0.000809
vn 0.382678 0.000000 -0.923882
vn 0.382688 -0.923878 -0.000000
vn 0.923884 -0.382673 -0.000126
vn 0.382688 0.923878 -0.000000
vn 0.923884 0.382673 0.000126
vn 0.001953 0.999987 0.004716
vn 0.923931 0.000000 0.382560
vn 0.000000 -0.923878 0.382688
vn 0.000000 -0.382673 0.923884
vn 0.000000 0.923878 0.382688
vn 0.000000 0.382673 0.923884
vn -0.382683 -0.923880 -0.000000
vn -0.923880 -0.382684 0.000000
vn -0.357398 -0.357398 0.862863
vn -0.923878 0.000000 0.382688
vn -0.382683 0.923880 0.000000
vn -0.923880 0.382684 -0.000000
vn -0.357398 0.357398 -0.862863
vn -0.923878 0.000000 -0.382688
vn 0.000000 -0.923878 -0.382688
vn 0.000000 -0.382673 -0.923884
vn 0.000000 0.923878 -0.382688
vn 0.000000 0.382673 -0.923884
vn 0.001953 -0.999998 -0.000809
vn 0.382678 0.000000 -0.923882
vn 0.382688 -0.923878 -0.000000
vn 0.923884 -0.382673 -0.000126
vn 0.382688 0.923878 -0.000000
vn 0.923884 0.382673 0.000126
vn 0.001953 0.999987 0.004716
vn 0.923931 0.000000 0.382560
vn 0.000000 -0.923878 0.382688
vn 0.000000 -0.382673 0.923884
vn 0.000000 0.923878 0.382688
vn 0.000000 0.382673 0.923884
vn 0.000000 -1.000000 -0.000000
f 31//1 8//1 2//1
f 51//2 30//2 45//2
f 99//3 57//3 71//3
f 22//4 36//4 50//4
f 10//5 16//5 3//5
f 17//6 52//6 44//6
f 93//7 58//7 87//7
f 107//8 86//8 101//8
f 155//9 113//9 127//9
f 78//10 92//10 106//10
f 66//11 72//11 59//11
f 79//12 100//12 73//12
f 149//13 114//13 143//13
f 163//14 142//14 157//14
f 211//15 169//15 183//15
f 134//16 148//16 162//16
f 122//17 128//17 115//17
f 135//18 156//18 129//18
f 205//19 170//19 199//19
f 219//20 198//20 213//20
f 190//21 204//21 218//21
f 178//22 184//22 171//22
f 191//23 212//23 185//23
f 1//24 5//24 7//24
f 2//25 5//25 4//25
f 3//26 5//26 6//26
f 8//27 12//27 14//27
f 9//28 12//28 11//28
f 10//29 12//29 13//29
f 15//30 19//30 21//30
f 16//31 19//31 18//31
f 17//32 19//32 20//32
f 22//33 26//33 28//33
f 23//34 26//34 25//34
f 24//35 26//35 27//35
f 29//36 33//36 35//36
f 30//37 33//37 32//37
f 31//38 33//38 34//38
f 36//39 40//39 42//39
f 37//40 40//40 39//40
f 38//41 40//41 41//41
f 43//42 47//42 49//42
f 44//43 47//43 46//43
f 45//44 47//44 48//44
f 50//45 54//45 56//45
f 51//46 54//46 53//46
f 52//47 54//47 55//47
f 57//48 61//48 63//48
f 58//49 61//49 60//49
f 59//50 61//50 62//50
f 64//51 68//51 70//51
f 65//52 68//52 67//52
f 66//53 68//53 69//53
f 71//54 75//54 77//54
f 72//55 75//55 74//55
f 73//56 75//56 76//56
f 78//57 82//57 84//57
f 79//58 82//58 81//58
f 80//59 82//59 83//59
f 85//60 89//60 91//60
f 86//61 89//61 88//61
f 87//62 89//62 90//62
f 92//63 96//63 98//63
f 93//64 96//64 95//64
f 94//65 96//65 97//65
f 99//66 103//66 105//66
f 100//67 103//67 102//67
f 101//68 103//68 104//68
f 106//69 110//69 112//69
f 107//70 110//70 109//70
f 108//71 110//71 111//71
f 113//72 117//72 119//72
f 114//73 117//73 116//73
f 115//74 117//74 118//74
f 120//75 124//75 126//75
f 121//76 124//76 123//76
f 122//77 124//77 125//77
f 127//78 131//78 133//78
f 128//79 131//79 130//79
f 129//80 131//80 132//80
f 134//81 138//81 140//81
f 135//82 138//82 137//82
f 136//83 138//83 139//83
f 141//84 145//84 147//84
f 142//85 145//85 144//85
f 143//86 145//86 146//86
f 148//87 152//87 154//87
f 149//88 152//88 151//88
f 150//89 152//89 153//89
f 155//90 159//90 161//90
f 156//91 159//91 158//91
f 157//92 159//92 160//92
f 162//93 166//93 168//93
f 163//94 166//94 165//94
f 164//95 166//95 167//95
f 169//96 173//96 175//96
f 170//97 173//97 172//97
f 171//98 173//98 174//98
f 176//99 180//99 182//99
f 177//100 180//100 179//100
f 178//101 180//101 181//101
f 183//102 187//102 189//102
f 184//103 187//103 186//103
f 185//104 187//104 188//104
f 190//105 194//105 196//105
f 191//106 194//106 193//106
f 192//107 194//107 195//107
f 197//108 201//108 203//108
f 198//109 201//109 200//109
f 199//110 201//110 202//110
f 204//111 208//111 210//111
f 205//112 208//112 207//112
f 206//113 208//113 209//113
f 211//114 215//114 217//114
f 212//115 215//115 214//115
f 213//116 215//116 216//116
f 218//117 222//117 224//117
f 219//118 222//118 221//118
f 220//119 222//119 223//119
f 1//120 18//120 15//120
f 7//121 16//121 18//121
f 2//122 14//122 6//122
f 6//123 10//123 3//123
f 22//124 13//124 9//124
f 28//125 10//125 13//125
f 23//126 20//126 27//126
f 20//127 24//127 27//127
f 15//128 46//128 43//128
f 46//129 17//129 44//129
f 50//130 25//130 22//130
f 25//131 52//131 23//131
f 45//132 55//132 51//132
f 55//133 44//133 52//133
f 43//134 32//134 29//134
f 49//135 30//135 32//135
f 36//136 53//136 50//136
f 42//137 51//137 53//137
f 37//138 34//138 41//138
f 34//139 38//139 41//139
f 29//140 4//140 1//140
f 4//141 31//141 2//141
f 36//142 11//142 39//142
f 11//143 37//143 39//143
f 57//144 74//144 71//144
f 63//145 72//145 74//145
f 64//146 62//146 58//146
f 70//147 59//147 62//147
f 78//148 69//148 65//148
f 84//149 66//149 69//149
f 73//150 83//150 79//150
f 76//151 80//151 83//151
f 71//152 102//152 99//152
f 77//153 100//153 102//153
f 106//154 81//154 78//154
f 112//155 79//155 81//155
f 101//156 111//156 107//156
f 104//157 108//157 111//157
f 99//158 88//158 85//158
f 105//159 86//159 88//159
f 92//160 109//160 106//160
f 98//161 107//161 109//161
f 87//162 97//162 93//162
f 90//163 94//163 97//163
f 85//164 60//164 57//164
f 91//165 58//165 60//165
f 65//166 95//166 92//166
f 67//167 93//167 95//167
f 127//168 119//168 130//168
f 130//169 115//169 128//169
f 120//170 118//170 114//170
f 126//171 115//171 118//171
f 121//172 140//172 125//172
f 125//173 136//173 122//173
f 129//174 139//174 135//174
f 132//175 136//175 139//175
f 127//176 158//176 155//176
f 133//177 156//177 158//177
f 162//178 137//178 134//178
f 137//179 164//179 135//179
f 157//180 167//180 163//180
f 160//181 164//181 167//181
f 141//182 161//182 144//182
f 144//183 157//183 142//183
f 162//184 154//184 165//184
f 165//185 150//185 163//185
f 143//186 153//186 149//186
f 146//187 150//187 153//187
f 141//188 116//188 113//188
f 116//189 143//189 114//189
f 121//190 151//190 148//190
f 123//191 149//191 151//191
f 183//192 175//192 186//192
f 186//193 171//193 184//193
f 176//194 174//194 170//194
f 182//195 171//195 174//195
f 177//196 196//196 181//196
f 181//197 192//197 178//197
f 185//198 195//198 191//198
f 188//199 192//199 195//199
f 183//200 214//200 211//200
f 189//201 212//201 214//201
f 218//202 193//202 190//202
f 193//203 220//203 191//203
f 213//204 223//204 219//204
f 216//205 220//205 223//205
f 197//206 217//206 200//206
f 200//207 213//207 198//207
f 218//208 210//208 221//208
f 221//209 206//209 219//209
f 199//210 209//210 205//210
f 202//211 206//211 209//211
f 197//212 172//212 169//212
f 172//213 199//213 170//213
f 177//214 207//214 204//214
f 179//215 205//215 207//215
f 43//216 1//216 15//216
f 31//217 37//217 8//217
f 51//218 38//218 30//218
f 99//219 85//219 57//219
f 22//220 9//220 36//220
f 10//221 24//221 16//221
f 17//222 23//222 52//222
f 93//223 64//223 58//223
f 107//224 94//224 86//224
f 155//225 141//225 113//225
f 78//226 65//226 92//226
f 66//227 80//227 72//227
f 79//228 108//228 100//228
f 149//229 120//229 114//229
f 163//230 150//230 142//230
f 211//231 197//231 169//231
f 134//232 121//232 148//232
f 122//233 136//233 128//233
f 135//234 164//234 156//234
f 205//235 176//235 170//235
f 219//236 206//236 198//236
f 190//237 177//237 204//237
f 178//238 192//238 184//238
f 191//239 220//239 212//239
f 1//240 4//240 5//240
f 2//241 6//241 5//241
f 3//242 7//242 5//242
f 8//243 11//243 12//243
f 9//244 13//244 12//244
f 10//245 14//245 12//245
f 15//246 18//246 19//246
f 16//247 20//247 19//247
f 17//248 21//248 19//248
f 22//249 25//249 26//249
f 23//250 27//250 26//250
f 24//251 28//251 26//251
f 29//252 32//252 33//252
f 30//253 34//253 33//253
f 31//254 35//254 33//254
f 36//255 39//255 40//255
f 37//256 41//256 40//256
f 38//257 42//257 40//257
f 43//258 46//258 47//258
f 44//259 48//259 47//259
f 45//260 49//260 47//260
f 50//261 53//261 54//261
f 51//262 55//262 54//262
f 52//263 56//263 54//263
f 57//264 60//264 61//264
f 58//265 62//265 61//265
f 59//266 63//266 61//266
f 64//267 67//267 68//267
f 65//268 69//268 68//268
f 66//269 70//269 68//269
f 71//270 74//270 75//270
f 72//271 76//271 75//271
f 73//272 77//272 75//272
f 78//273 81//273 82//273
f 79//274 83//274 82//274
f 80//275 84//275 82//275
f 85//276 88//276 89//276
f 86//277 90//277 89//277
f 87//278 91//278 89//278
f 92//279 95//279 96//279
f 93//280 97//280 96//280
f 94//281 98//281 96//281
f 99//282 102//282 103//282
f 100//283 104//283 103//283
f 101//284 105//284 103//284
f 106//285 109//285 110//285
f 107//286 111//286 110//286
f 108//287 112//287 110//287
f 113//288 116//288 117//288
f 114//289 118//289 117//289
f 115//290 119//290 117//290
f 120//291 123//291 124//291
f 121//292 125//292 124//292
f 122//293 126//293 124//293
f 127//294 130//294 131//294
f 128//295 132//295 131//295
f 129//296 133//296 131//296
f 134//297 137//297 138//297
f 135//298 139//298 138//298
f 136//299 140//299 138//299
f 141//300 144//300 145//300
f 142//301 146//301 145//301
f 143//302 147//302 145//302
f 148//303 151//303 152//303
f 149//304 153//304 152//304
f 150//305 154//305 152//305
f 155//306 158//306 159//306
f 156//307 160//307 159//307
f 157//308 161//308 159//308
f 162//309 165//309 166//309
f 163//310 167//310 166//310
f 164//311 168//311 166//311
f 169//312 172//312 173//312
f 170//313 174//313 173//313
f 171//314 175//314 173//314
f 176//315 179//315 180//315
f 177//316 181//316 180//316
f 178//317 182//317 180//317
f 183//318 186//318 187//318
f 184//319 188//319 187//319
f 185//320 189//320 187//320
f 190//321 193//321 194//321
f 191//322 195//322 194//322
f 192//323 196//323 194//323
f 197//324 200//324 201//324
f 198//325 202//325 201//325
f 199//326 203//326 201//326
f 204//327 207//327 208//327
f 205//328 209//328 208//328
f 206//329 210//329 208//329
f 211//330 214//330 215//330
f 212//331 216//331 215//331
f 213//332 217//332 215//332
f 218//333 221//333 222//333
f 219//334 223//334 222//334
f 220//335 224//335 222//335
f 1//336 7//336 18//336
f 7//337 3//337 16//337
f 2//338 8//338 14//338
f 6//339 14//339 10//339
f 22//340 28//340 13//340
f 28//341 24//341 10//341
f 23//342 17//342 20//342
f 20//343 16//343 24//343
f 15//344 21//344 46//344
f 46//345 21//345 17//345
f 50//346 56//346 25//346
f 25//347 56//347 52//347
f 45//348 48//348 55//348
f 55//349 48//349 44//349
f 43//350 49//350 32//350
f 49//351 45//351 30//351
f 36//352 42//352 53//352
f 42//353 38//353 51//353
f 37//354 31//354 34//354
f 34//355 30//355 38//355
f 29//356 35//356 4//356
f 4//357 35//357 31//357
f 36//358 9//358 11//358
f 11//359 8//359 37//359
f 57//360 63//360 74//360
f 63//361 59//361 72//361
f 64//362 70//362 62//362
f 70//363 66//363 59//363
f 78//364 84//364 69//364
f 84//365 80//365 66//365
f 73//366 76//366 83//366
f 76//367 72//367 80//367
f 71//368 77//368 102//368
f 77//369 73//369 100//369
f 106//370 112//370 81//370
f 112//371 108//371 79//371
f 101//372 104//372 111//372
f 104//373 100//373 108//373
f 99//374 105//374 88//374
f 105//375 101//375 86//375
f 92//376 98//376 109//376
f 98//377 94//377 107//377
f 87//378 90//378 97//378
f 90//379 86//379 94//379
f 85//380 91//380 60//380
f 91//381 87//381 58//381
f 65//382 67//382 95//382
f 67//383 64//383 93//383
f 127//384 113//384 119//384
f 130//385 119//385 115//385
f 120//386 126//386 118//386
f 126//387 122//387 115//387
f 121//388 134//388 140//388
f 125//389 140//389 136//389
f 129//390 132//390 139//390
f 132//391 128//391 136//391
f 127//392 133//392 158//392
f 133//393 129//393 156//393
f 162//394 168//394 137//394
f 137//395 168//395 164//395
f 157//396 160//396 167//396
f 160//397 156//397 164//397
f 141//398 155//398 161//398
f 144//399 161//399 157//399
f 162//400 148//400 154//400
f 165//401 154//401 150//401
f 143//402 146//402 153//402
f 146//403 142//403 150//403
f 141//404 147//404 116//404
f 116//405 147//405 143//405
f 121//406 123//406 151//406
f 123//407 120//407 149//407
f 183//408 169//408 175//408
f 186//409 175//409 171//409
f 176//410 182//410 174//410
f 182//411 178//411 171//411
f 177//412 190//412 196//412
f 181//413 196//413 192//413
f 185//414 188//414 195//414
f 188//415 184//415 192//415
f 183//416 189//416 214//416
f 189//417 185//417 212//417
f 218//418 224//418 193//418
f 193//419 224//419 220//419
f 213//420 216//420 223//420
f 216//421 212//421 220//421
f 197//422 211//422 217//422
f 200//423 217//423 213//423
f 218//424 204//424 210//424
f 221//425 210//425 206//425
f 199//426 202//426 209//426
f 202//427 198//427 206//427
f 197//428 203//428 172//428
f 172//429 203//429 199//429
f 177//430 179//430 207//430
f 179//431 176//431 205//431
f 43//432 29//432 1//432
