# Original asset generated in Blender
v -0.357500 0.000000 0.197500
v -0.357500 0.012500 0.210000
v -0.370000 0.012500 0.197500
v -0.357500 0.003661 0.206339
v -0.364717 0.005283 0.204717
v -0.366339 0.012500 0.206339
v -0.366339 0.003661 0.197500
v -0.357500 0.127500 0.210000
v -0.357500 0.140000 0.197500
v -0.370000 0.127500 0.197500
v -0.357500 0.136339 0.206339
v -0.364717 0.134717 0.204717
v -0.366339 0.136339 0.197500
v -0.366339 0.127500 0.206339
v -0.357500 0.000000 -0.197500
v -0.370000 0.012500 -0.197500
v -0.357500 0.012500 -0.210000
v -0.366339 0.003661 -0.197500
v -0.364717 0.005283 -0.204717
v -0.366339 0.012500 -0.206339
v -0.357500 0.003661 -0.206339
v -0.357500 0.140000 -0.197500
v -0.357500 0.127500 -0.210000
v -0.370000 0.127500 -0.197500
v -0.357500 0.136339 -0.206339
v -0.364717 0.134717 -0.204717
v -0.366339 0.127500 -0.206339
v -0.366339 0.136339 -0.197500
v 0.357500 0.000000 0.197500
v 0.370000 0.012500 0.197500
v 0.357500 0.012500 0.210000
v 0.366339 0.003661 0.197500
v 0.364717 0.005283 0.204717
v 0.366339 0.012500 0.206339
v 0.357500 0.003661 0.206339
v 0.357500 0.140000 0.197500
v 0.357500 0.127500 0.210000
v 0.370000 0.127500 0.197500
v 0.357500 0.136339 0.206339
v 0.364717 0.134717 0.204717
v 0.366339 0.127500 0.206339
v 0.366339 0.136339 0.197500
v 0.357500 0.000000 -0.197500
v 0.357500 0.012500 -0.210000
v 0.370000 0.012500 -0.197500
v 0.357500 0.003661 -0.206339
v 0.364717 0.005283 -0.204717
v 0.366339 0.012500 -0.206339
v 0.366339 0.003661 -0.197500
v 0.357500 0.140000 -0.197500
v 0.370000 0.127500 -0.197500
v 0.357500 0.127500 -0.210000
v 0.366339 0.136339 -0.197500
v 0.364717 0.134717 -0.204717
v 0.366339 0.127500 -0.206339
v 0.357500 0.136339 -0.206339
v -0.307500 0.110000 0.107500
v -0.307500 0.122500 0.120000
v -0.320000 0.122500 0.107500
v -0.307500 0.113661 0.116339
v -0.314717 0.115283 0.114717
v -0.316339 0.122500 0.116339
v -0.316339 0.113661 0.107500
v -0.307500 0.977500 0.120000
v -0.307500 0.990000 0.107500
v -0.320000 0.977500 0.107500
v -0.307500 0.986339 0.116339
v -0.314717 0.984717 0.114717
v -0.316339 0.986339 0.107500
v -0.316339 0.977500 0.116339
v -0.307500 0.110000 -0.107500
v -0.320000 0.122500 -0.107500
v -0.307500 0.122500 -0.120000
v -0.316339 0.113661 -0.107500
v -0.314717 0.115283 -0.114717
v -0.316339 0.122500 -0.116339
v -0.307500 0.113661 -0.116339
v -0.307500 0.990000 -0.107500
v -0.307500 0.977500 -0.120000
v -0.320000 0.977500 -0.107500
v -0.307500 0.986339 -0.116339
v -0.314717 0.984717 -0.114717
v -0.316339 0.977500 -0.116339
v -0.316339 0.986339 -0.107500
v 0.307500 0.110000 0.107500
v 0.320000 0.122500 0.107500
v 0.307500 0.122500 0.120000
v 0.316339 0.113661 0.107500
v 0.314717 0.115283 0.114717
v 0.316339 0.122500 0.116339
v 0.307500 0.113661 0.116339
v 0.307500 0.990000 0.107500
v 0.307500 0.977500 0.120000
v 0.320000 0.977500 0.107500
v 0.307500 0.986339 0.116339
v 0.314717 0.984717 0.114717
v 0.316339 0.977500 0.116339
v 0.316339 0.986339 0.107500
v 0.307500 0.110000 -0.107500
v 0.307500 0.122500 -0.120000
v 0.320000 0.122500 -0.107500
v 0.307500 0.113661 -0.116339
v 0.314717 0.115283 -0.114717
v 0.316339 0.122500 -0.116339
v 0.316339 0.113661 -0.107500
v 0.307500 0.990000 -0.107500
v 0.320000 0.977500 -0.107500
v 0.307500 0.977500 -0.120000
v 0.316339 0.986339 -0.107500
v 0.314717 0.984717 -0.114717
v 0.316339 0.977500 -0.116339
v 0.307500 0.986339 -0.116339
v -0.325000 0.120000 0.132500
v -0.325000 0.132500 0.145000
v -0.337500 0.132500 0.132500
v -0.325000 0.123661 0.141339
v -0.332217 0.125283 0.139717
v -0.333839 0.132500 0.141339
v -0.333839 0.123661 0.132500
v -0.325000 1.087500 0.145000
v -0.325000 1.100000 0.132500
v -0.337500 1.087500 0.132500
v -0.325000 1.096339 0.141339
v -0.332217 1.094717 0.139717
v -0.333839 1.096339 0.132500
v -0.333839 1.087500 0.141339
v -0.325000 0.120000 -0.132500
v -0.337500 0.132500 -0.132500
v -0.325000 0.132500 -0.145000
v -0.333839 0.123661 -0.132500
v -0.332217 0.125283 -0.139717
v -0.333839 0.132500 -0.141339
v -0.325000 0.123661 -0.141339
v -0.325000 1.100000 -0.132500
v -0.325000 1.087500 -0.145000
v -0.337500 1.087500 -0.132500
v -0.325000 1.096339 -0.141339
v -0.332217 1.094717 -0.139717
v -0.333839 1.087500 -0.141339
v -0.333839 1.096339 -0.132500
v -0.275000 0.120000 0.132500
v -0.262500 0.132500 0.132500
v -0.275000 0.132500 0.145000
v -0.266161 0.123661 0.132500
v -0.267783 0.125283 0.139717
v -0.266161 0.132500 0.141339
v -0.275000 0.123661 0.141339
v -0.275000 1.100000 0.132500
v -0.275000 1.087500 0.145000
v -0.262500 1.087500 0.132500
v -0.275000 1.096339 0.141339
v -0.267783 1.094717 0.139717
v -0.266161 1.087500 0.141339
v -0.266161 1.096339 0.132500
v -0.275000 0.120000 -0.132500
v -0.275000 0.132500 -0.145000
v -0.262500 0.132500 -0.132500
v -0.275000 0.123661 -0.141339
v -0.267783 0.125283 -0.139717
v -0.266161 0.132500 -0.141339
v -0.266161 0.123661 -0.132500
v -0.275000 1.100000 -0.132500
v -0.262500 1.087500 -0.132500
v -0.275000 1.087500 -0.145000
v -0.266161 1.096339 -0.132500
v -0.267783 1.094717 -0.139717
v -0.266161 1.087500 -0.141339
v -0.275000 1.096339 -0.141339
v 0.275000 0.120000 0.132500
v 0.275000 0.132500 0.145000
v 0.262500 0.132500 0.132500
v 0.275000 0.123661 0.141339
v 0.267783 0.125283 0.139717
v 0.266161 0.132500 0.141339
v 0.266161 0.123661 0.132500
v 0.275000 1.087500 0.145000
v 0.275000 1.100000 0.132500
v 0.262500 1.087500 0.132500
v 0.275000 1.096339 0.141339
v 0.267783 1.094717 0.139717
v 0.266161 1.096339 0.132500
v 0.266161 1.087500 0.141339
v 0.275000 0.120000 -0.132500
v 0.262500 0.132500 -0.132500
v 0.275000 0.132500 -0.145000
v 0.266161 0.123661 -0.132500
v 0.267783 0.125283 -0.139717
v 0.266161 0.132500 -0.141339
v 0.275000 0.123661 -0.141339
v 0.275000 1.100000 -0.132500
v 0.275000 1.087500 -0.145000
v 0.262500 1.087500 -0.132500
v 0.275000 1.096339 -0.141339
v 0.267783 1.094717 -0.139717
v 0.266161 1.087500 -0.141339
v 0.266161 1.096339 -0.132500
v 0.325000 0.120000 0.132500
v 0.337500 0.132500 0.132500
v 0.325000 0.132500 0.145000
v 0.333839 0.123661 0.132500
v 0.332217 0.125283 0.139717
v 0.333839 0.132500 0.141339
v 0.325000 0.123661 0.141339
v 0.325000 1.100000 0.132500
v 0.325000 1.087500 0.145000
v 0.337500 1.087500 0.132500
v 0.325000 1.096339 0.141339
v 0.332217 1.094717 0.139717
v 0.333839 1.087500 0.141339
v 0.333839 1.096339 0.132500
v 0.325000 0.120000 -0.132500
v 0.325000 0.132500 -0.145000
v 0.337500 0.132500 -0.132500
v 0.325000 0.123661 -0.141339
v 0.332217 0.125283 -0.139717
v 0.333839 0.132500 -0.141339
v 0.333839 0.123661 -0.132500
v 0.325000 1.100000 -0.132500
v 0.337500 1.087500 -0.132500
v 0.325000 1.087500 -0.145000
v 0.333839 1.096339 -0.132500
v 0.332217 1.094717 -0.139717
v 0.333839 1.087500 -0.141339
v 0.325000 1.096339 -0.141339
v -0.247500 0.960000 0.107500
v -0.247500 0.972500 0.120000
v -0.260000 0.972500 0.107500
v -0.247500 0.963661 0.116339
v -0.254717 0.965283 0.114717
v -0.256339 0.972500 0.116339
v -0.256339 0.963661 0.107500
v -0.247500 1.077500 0.120000
v -0.247500 1.090000 0.107500
v -0.260000 1.077500 0.107500
v -0.247500 1.086339 0.116339
v -0.254717 1.084717 0.114717
v -0.256339 1.086339 0.107500
v -0.256339 1.077500 0.116339
v -0.247500 0.960000 -0.107500
v -0.260000 0.972500 -0.107500
v -0.247500 0.972500 -0.120000
v -0.256339 0.963661 -0.107500
v -0.254717 0.965283 -0.114717
v -0.256339 0.972500 -0.116339
v -0.247500 0.963661 -0.116339
v -0.247500 1.090000 -0.107500
v -0.247500 1.077500 -0.120000
v -0.260000 1.077500 -0.107500
v -0.247500 1.086339 -0.116339
v -0.254717 1.084717 -0.114717
v -0.256339 1.077500 -0.116339
v -0.256339 1.086339 -0.107500
v -0.152500 0.960000 0.107500
v -0.140000 0.972500 0.107500
v -0.152500 0.972500 0.120000
v -0.143661 0.963661 0.107500
v -0.145283 0.965283 0.114717
v -0.143661 0.972500 0.116339
v -0.152500 0.963661 0.116339
v -0.152500 1.090000 0.107500
v -0.152500 1.077500 0.120000
v -0.140000 1.077500 0.107500
v -0.152500 1.086339 0.116339
v -0.145283 1.084717 0.114717
v -0.143661 1.077500 0.116339
v -0.143661 1.086339 0.107500
v -0.152500 0.960000 -0.107500
v -0.152500 0.972500 -0.120000
v -0.140000 0.972500 -0.107500
v -0.152500 0.963661 -0.116339
v -0.145283 0.965283 -0.114717
v -0.143661 0.972500 -0.116339
v -0.143661 0.963661 -0.107500
v -0.152500 1.090000 -0.107500
v -0.140000 1.077500 -0.107500
v -0.152500 1.077500 -0.120000
v -0.143661 1.086339 -0.107500
v -0.145283 1.084717 -0.114717
v -0.143661 1.077500 -0.116339
v -0.152500 1.086339 -0.116339
v -0.047500 0.960000 0.107500
v -0.047500 0.972500 0.120000
v -0.060000 0.972500 0.107500
v -0.047500 0.963661 0.116339
v -0.054717 0.965283 0.114717
v -0.056339 0.972500 0.116339
v -0.056339 0.963661 0.107500
v -0.047500 1.077500 0.120000
v -0.047500 1.090000 0.107500
v -0.060000 1.077500 0.107500
v -0.047500 1.086339 0.116339
v -0.054717 1.084717 0.114717
v -0.056339 1.086339 0.107500
v -0.056339 1.077500 0.116339
v -0.047500 0.960000 -0.107500
v -0.060000 0.972500 -0.107500
v -0.047500 0.972500 -0.120000
v -0.056339 0.963661 -0.107500
v -0.054717 0.965283 -0.114717
v -0.056339 0.972500 -0.116339
v -0.047500 0.963661 -0.116339
v -0.047500 1.090000 -0.107500
v -0.047500 1.077500 -0.120000
v -0.060000 1.077500 -0.107500
v -0.047500 1.086339 -0.116339
v -0.054717 1.084717 -0.114717
v -0.056339 1.077500 -0.116339
v -0.056339 1.086339 -0.107500
v 0.047500 0.960000 0.107500
v 0.060000 0.972500 0.107500
v 0.047500 0.972500 0.120000
v 0.056339 0.963661 0.107500
v 0.054717 0.965283 0.114717
v 0.056339 0.972500 0.116339
v 0.047500 0.963661 0.116339
v 0.047500 1.090000 0.107500
v 0.047500 1.077500 0.120000
v 0.060000 1.077500 0.107500
v 0.047500 1.086339 0.116339
v 0.054717 1.084717 0.114717
v 0.056339 1.077500 0.116339
v 0.056339 1.086339 0.107500
v 0.047500 0.960000 -0.107500
v 0.047500 0.972500 -0.120000
v 0.060000 0.972500 -0.107500
v 0.047500 0.963661 -0.116339
v 0.054717 0.965283 -0.114717
v 0.056339 0.972500 -0.116339
v 0.056339 0.963661 -0.107500
v 0.047500 1.090000 -0.107500
v 0.060000 1.077500 -0.107500
v 0.047500 1.077500 -0.120000
v 0.056339 1.086339 -0.107500
v 0.054717 1.084717 -0.114717
v 0.056339 1.077500 -0.116339
v 0.047500 1.086339 -0.116339
v 0.152500 0.960000 0.107500
v 0.152500 0.972500 0.120000
v 0.140000 0.972500 0.107500
v 0.152500 0.963661 0.116339
v 0.145283 0.965283 0.114717
v 0.143661 0.972500 0.116339
v 0.143661 0.963661 0.107500
v 0.152500 1.077500 0.120000
v 0.152500 1.090000 0.107500
v 0.140000 1.077500 0.107500
v 0.152500 1.086339 0.116339
v 0.145283 1.084717 0.114717
v 0.143661 1.086339 0.107500
v 0.143661 1.077500 0.116339
v 0.152500 0.960000 -0.107500
v 0.140000 0.972500 -0.107500
v 0.152500 0.972500 -0.120000
v 0.143661 0.963661 -0.107500
v 0.145283 0.965283 -0.114717
v 0.143661 0.972500 -0.116339
v 0.152500 0.963661 -0.116339
v 0.152500 1.090000 -0.107500
v 0.152500 1.077500 -0.120000
v 0.140000 1.077500 -0.107500
v 0.152500 1.086339 -0.116339
v 0.145283 1.084717 -0.114717
v 0.143661 1.077500 -0.116339
v 0.143661 1.086339 -0.107500
v 0.247500 0.960000 0.107500
v 0.260000 0.972500 0.107500
v 0.247500 0.972500 0.120000
v 0.256339 0.963661 0.107500
v 0.254717 0.965283 0.114717
v 0.256339 0.972500 0.116339
v 0.247500 0.963661 0.116339
v 0.247500 1.090000 0.107500
v 0.247500 1.077500 0.120000
v 0.260000 1.077500 0.107500
v 0.247500 1.086339 0.116339
v 0.254717 1.084717 0.114717
v 0.256339 1.077500 0.116339
v 0.256339 1.086339 0.107500
v 0.247500 0.960000 -0.107500
v 0.247500 0.972500 -0.120000
v 0.260000 0.972500 -0.107500
v 0.247500 0.963661 -0.116339
v 0.254717 0.965283 -0.114717
v 0.256339 0.972500 -0.116339
v 0.256339 0.963661 -0.107500
v 0.247500 1.090000 -0.107500
v 0.260000 1.077500 -0.107500
v 0.247500 1.077500 -0.120000
v 0.256339 1.086339 -0.107500
v 0.254717 1.084717 -0.114717
v 0.256339 1.077500 -0.116339
v 0.247500 1.086339 -0.116339
v -0.217500 0.245000 -0.132000
v -0.217500 0.257500 -0.119500
v -0.230000 0.257500 -0.132000
v -0.217500 0.248661 -0.123161
v -0.224717 0.250283 -0.124783
v -0.226339 0.257500 -0.123161
v -0.226339 0.248661 -0.132000
v -0.217500 0.882500 -0.119500
v -0.217500 0.895000 -0.132000
v -0.230000 0.882500 -0.132000
v -0.217500 0.891339 -0.123161
v -0.224717 0.889717 -0.124783
v -0.226339 0.891339 -0.132000
v -0.226339 0.882500 -0.123161
v -0.217500 0.245000 -0.132000
v -0.230000 0.257500 -0.132000
v -0.217500 0.257500 -0.144500
v -0.226339 0.248661 -0.132000
v -0.224717 0.250283 -0.139217
v -0.226339 0.257500 -0.140839
v -0.217500 0.248661 -0.140839
v -0.217500 0.895000 -0.132000
v -0.217500 0.882500 -0.144500
v -0.230000 0.882500 -0.132000
v -0.217500 0.891339 -0.140839
v -0.224717 0.889717 -0.139217
v -0.226339 0.882500 -0.140839
v -0.226339 0.891339 -0.132000
v 0.217500 0.245000 -0.132000
v 0.230000 0.257500 -0.132000
v 0.217500 0.257500 -0.119500
v 0.226339 0.248661 -0.132000
v 0.224717 0.250283 -0.124783
v 0.226339 0.257500 -0.123161
v 0.217500 0.248661 -0.123161
v 0.217500 0.895000 -0.132000
v 0.217500 0.882500 -0.119500
v 0.230000 0.882500 -0.132000
v 0.217500 0.891339 -0.123161
v 0.224717 0.889717 -0.124783
v 0.226339 0.882500 -0.123161
v 0.226339 0.891339 -0.132000
v 0.217500 0.245000 -0.132000
v 0.217500 0.257500 -0.144500
v 0.230000 0.257500 -0.132000
v 0.217500 0.248661 -0.140839
v 0.224717 0.250283 -0.139217
v 0.226339 0.257500 -0.140839
v 0.226339 0.248661 -0.132000
v 0.217500 0.895000 -0.132000
v 0.230000 0.882500 -0.132000
v 0.217500 0.882500 -0.144500
v 0.226339 0.891339 -0.132000
v 0.224717 0.889717 -0.139217
v 0.226339 0.882500 -0.140839
v 0.217500 0.891339 -0.140839
vn 0.000000 0.000000 1.000000
vn 1.000000 0.000000 -0.000000
vn 0.000000 -1.000000 -0.000000
vn 0.000000 1.000000 -0.000000
vn -1.000000 0.000000 -0.000000
vn 0.000000 0.000000 -1.000000
vn 0.000000 0.000000 1.000000
vn 1.000000 0.000000 -0.000000
vn 0.000000 -1.000000 -0.000000
vn 0.000000 1.000000 -0.000000
vn -1.000000 0.000000 -0.000000
vn 0.000000 0.000000 -1.000000
vn 0.000000 0.000000 1.000000
vn 1.000000 0.000000 -0.000000
vn 0.000000 -1.000000 -0.000000
vn 0.000000 1.000000 -0.000000
vn -1.000000 0.000000 -0.000000
vn 0.000000 0.000000 -1.000000
vn 0.000000 0.000000 1.000000
vn 1.000000 0.000000 -0.000000
vn 0.000000 -1.000000 -0.000000
vn 0.000000 1.000000 -0.000000
vn -1.000000 0.000000 -0.000000
vn 0.000000 0.000000 -1.000000
vn 0.000000 0.000000 1.000000
vn 1.000000 0.000000 -0.000000
vn 0.000000 -1.000000 -0.000000
vn 0.000000 1.000000 -0.000000
vn -1.000000 0.000000 -0.000000
vn 0.000000 0.000000 -1.000000
vn 0.000000 0.000000 1.000000
vn 1.000000 0.000000 -0.000000
vn 0.000000 -1.000000 -0.000000
vn 0.000000 1.000000 -0.000000
vn -1.000000 0.000000 -0.000000
vn 0.000000 0.000000 -1.000000
vn 0.000000 0.000000 1.000000
vn 1.000000 0.000000 -0.000000
vn 0.000000 0.000000 -0.000000
vn 0.000000 1.000000 -0.000000
vn -1.000000 0.000000 -0.000000
vn 0.000000 0.000000 -1.000000
vn 0.000000 0.000000 1.000000
vn 0.000000 0.000000 -0.000000
vn 0.000000 0.000000 -0.000000
vn 0.000000 0.000000 -0.000000
vn 0.000000 0.000000 -1.000000
vn -0.367180 -0.886452 0.281747
vn -0.281747 -0.367181 0.886452
vn -0.886452 -0.281747 0.367180
vn -0.367181 0.281747 0.886452
vn -0.281747 0.886452 0.367180
vn -0.886452 0.367180 0.281748
vn -0.281747 -0.886452 -0.367180
vn -0.886452 -0.367180 -0.281748
vn -0.367181 -0.281747 -0.886452
vn -0.367180 0.886452 -0.281747
vn -0.281747 0.367181 -0.886452
vn -0.886452 0.281747 -0.367180
vn 0.281747 -0.886452 0.367180
vn 0.886452 -0.367180 0.281748
vn 0.367181 -0.281747 0.886452
vn 0.367180 0.886452 0.281747
vn 0.281747 0.367181 0.886452
vn 0.886452 0.281747 0.367180
vn 0.367180 -0.886452 -0.281747
vn 0.281747 -0.367181 -0.886452
vn 0.886452 -0.281747 -0.367180
vn 0.281747 0.886452 -0.367180
vn 0.886452 0.367180 -0.281748
vn 0.367181 0.281747 -0.886452
vn -0.367181 -0.886452 0.281747
vn -0.281748 -0.367181 0.886451
vn -0.886452 -0.281748 0.367180
vn -0.367181 0.281749 0.886451
vn -0.281748 0.886452 0.367180
vn -0.886452 0.367180 0.281748
vn -0.281748 -0.886452 -0.367181
vn -0.886452 -0.367180 -0.281748
vn -0.367181 -0.281748 -0.886451
vn -0.367180 0.886452 -0.281748
vn -0.281749 0.367181 -0.886451
vn -0.886452 0.281748 -0.367180
vn 0.281748 -0.886452 0.367181
vn 0.886452 -0.367180 0.281748
vn 0.367181 -0.281748 0.886451
vn 0.367180 0.886452 0.281748
vn 0.281749 0.367181 0.886451
vn 0.886452 0.281748 0.367180
vn 0.367181 -0.886452 -0.281747
vn 0.281748 -0.367181 -0.886451
vn 0.886452 -0.281748 -0.367180
vn 0.281748 0.886452 -0.367180
vn 0.886452 0.367180 -0.281748
vn 0.367181 0.281749 -0.886451
vn -0.367180 -0.886452 0.281747
vn -0.281746 -0.367180 0.886452
vn -0.886453 -0.281747 0.367177
vn -0.367180 0.281745 0.886453
vn -0.281748 0.886452 0.367179
vn -0.886454 0.367175 0.281747
vn -0.281747 -0.886452 -0.367180
vn -0.886453 -0.367177 -0.281747
vn -0.367180 -0.281746 -0.886452
vn -0.367179 0.886453 -0.281748
vn -0.281747 0.367178 -0.886453
vn -0.886454 0.281745 -0.367177
vn 0.281747 -0.886452 0.367180
vn 0.886453 -0.367177 0.281747
vn 0.367180 -0.281746 0.886452
vn 0.367179 0.886453 0.281748
vn 0.281747 0.367178 0.886453
vn 0.886454 0.281745 0.367177
vn 0.367180 -0.886452 -0.281747
vn 0.281746 -0.367180 -0.886452
vn 0.886453 -0.281747 -0.367177
vn 0.281748 0.886452 -0.367179
vn 0.886454 0.367175 -0.281747
vn 0.367180 0.281745 -0.886453
vn -0.367180 -0.886452 0.281747
vn -0.281746 -0.367180 0.886452
vn -0.886453 -0.281747 0.367177
vn -0.367180 0.281745 0.886453
vn -0.281748 0.886452 0.367179
vn -0.886454 0.367175 0.281747
vn -0.281747 -0.886452 -0.367180
vn -0.886453 -0.367177 -0.281747
vn -0.367180 -0.281746 -0.886452
vn -0.367179 0.886453 -0.281748
vn -0.281747 0.367178 -0.886453
vn -0.886454 0.281745 -0.367177
vn 0.281747 -0.886452 0.367180
vn 0.886453 -0.367177 0.281747
vn 0.367180 -0.281746 0.886452
vn 0.367179 0.886453 0.281748
vn 0.281747 0.367178 0.886453
vn 0.886454 0.281745 0.367177
vn 0.367180 -0.886452 -0.281747
vn 0.281746 -0.367180 -0.886452
vn 0.886453 -0.281747 -0.367177
vn 0.281748 0.886452 -0.367179
vn 0.886454 0.367175 -0.281747
vn 0.367180 0.281745 -0.886453
vn -0.367179 -0.886452 0.281748
vn -0.281749 -0.367180 0.886452
vn -0.886452 -0.281748 0.367180
vn -0.367181 0.281746 0.886452
vn -0.281748 0.886452 0.367179
vn -0.886453 0.367178 0.281748
vn -0.281748 -0.886452 -0.367179
vn -0.886452 -0.367180 -0.281748
vn -0.367180 -0.281749 -0.886452
vn -0.367179 0.886452 -0.281748
vn -0.281748 0.367178 -0.886452
vn -0.886452 0.281746 -0.367180
vn 0.281748 -0.886452 0.367180
vn 0.886452 -0.367181 0.281747
vn 0.367181 -0.281748 0.886452
vn 0.367180 0.886452 0.281747
vn 0.281748 0.367179 0.886452
vn 0.886452 0.281745 0.367181
vn 0.367180 -0.886452 -0.281747
vn 0.281748 -0.367181 -0.886451
vn 0.886452 -0.281747 -0.367181
vn 0.281748 0.886452 -0.367180
vn 0.886453 0.367179 -0.281746
vn 0.367181 0.281746 -0.886452
vn -0.367180 -0.886452 0.281748
vn -0.281748 -0.367181 0.886451
vn -0.886452 -0.281748 0.367180
vn -0.367181 0.281746 0.886452
vn -0.281748 0.886452 0.367180
vn -0.886453 0.367178 0.281748
vn -0.281748 -0.886452 -0.367180
vn -0.886452 -0.367180 -0.281748
vn -0.367181 -0.281748 -0.886451
vn -0.367180 0.886452 -0.281748
vn -0.281748 0.367179 -0.886452
vn -0.886452 0.281746 -0.367180
vn 0.281748 -0.886452 0.367180
vn 0.886452 -0.367180 0.281748
vn 0.367181 -0.281748 0.886451
vn 0.367180 0.886452 0.281748
vn 0.281748 0.367179 0.886452
vn 0.886452 0.281746 0.367180
vn 0.367180 -0.886452 -0.281748
vn 0.281748 -0.367181 -0.886451
vn 0.886452 -0.281748 -0.367180
vn 0.281748 0.886452 -0.367180
vn 0.886453 0.367178 -0.281748
vn 0.367181 0.281746 -0.886452
vn -0.367180 -0.886452 0.281747
vn -0.281748 -0.367181 0.886451
vn -0.886452 -0.281747 0.367181
vn -0.367181 0.281746 0.886452
vn -0.281748 0.886452 0.367180
vn -0.886453 0.367179 0.281746
vn -0.281748 -0.886452 -0.367180
vn -0.886452 -0.367181 -0.281747
vn -0.367181 -0.281748 -0.886452
vn -0.367180 0.886452 -0.281747
vn -0.281748 0.367179 -0.886452
vn -0.886452 0.281745 -0.367181
vn 0.281748 -0.886452 0.367179
vn 0.886452 -0.367180 0.281748
vn 0.367180 -0.281749 0.886452
vn 0.367179 0.886452 0.281748
vn 0.281748 0.367178 0.886452
vn 0.886452 0.281746 0.367180
vn 0.367179 -0.886452 -0.281748
vn 0.281749 -0.367180 -0.886452
vn 0.886452 -0.281748 -0.367180
vn 0.281748 0.886452 -0.367179
vn 0.886453 0.367178 -0.281748
vn 0.367181 0.281746 -0.886452
vn -0.367180 -0.886453 0.281746
vn -0.281747 -0.367180 0.886452
vn -0.886452 -0.281746 0.367180
vn -0.367180 0.281748 0.886452
vn -0.281748 0.886452 0.367179
vn -0.886452 0.367181 0.281747
vn -0.281746 -0.886452 -0.367181
vn -0.886451 -0.367183 -0.281746
vn -0.367182 -0.281746 -0.886452
vn -0.367180 0.886452 -0.281747
vn -0.281746 0.367181 -0.886452
vn -0.886452 0.281746 -0.367181
vn 0.281746 -0.886452 0.367180
vn 0.886451 -0.367183 0.281746
vn 0.367181 -0.281747 0.886452
vn 0.367180 0.886452 0.281747
vn 0.281748 0.367180 0.886452
vn 0.886452 0.281747 0.367181
vn 0.367180 -0.886453 -0.281746
vn 0.281746 -0.367181 -0.886452
vn 0.886452 -0.281746 -0.367181
vn 0.281747 0.886452 -0.367181
vn 0.886451 0.367184 -0.281747
vn 0.367182 0.281746 -0.886452
vn -0.382683 -0.923880 -0.000000
vn -0.923880 -0.382683 -0.000000
vn -0.382684 0.000000 0.923879
vn -0.923880 0.000000 0.382683
vn -0.382683 0.923880 -0.000000
vn -0.923880 0.382683 -0.000000
vn -0.382684 0.000000 -0.923879
vn -0.923880 0.000000 -0.382683
vn 0.000000 -0.923880 -0.382683
vn 0.000000 -0.382684 -0.923879
vn 0.000000 0.923880 -0.382683
vn 0.000000 0.382684 -0.923879
vn 0.923880 0.000000 -0.382683
vn 0.382684 0.000000 -0.923879
vn 0.382683 -0.923880 -0.000000
vn 0.923880 -0.382683 -0.000000
vn 0.382683 0.923880 -0.000000
vn 0.923880 0.382683 -0.000000
vn 0.382684 0.000000 0.923879
vn 0.923880 0.000000 0.382683
vn 0.000000 -0.923880 0.382683
vn 0.000000 -0.382684 0.923879
vn 0.000000 0.923880 0.382683
vn 0.000000 0.382684 0.923879
vn -0.382684 -0.923880 -0.000000
vn -0.923880 -0.382683 -0.000000
vn -0.382684 0.000000 0.923879
vn -0.923880 0.000000 0.382683
vn -0.382683 0.923880 -0.000000
vn -0.923880 0.382683 -0.000000
vn -0.382684 0.000000 -0.923879
vn -0.923880 0.000000 -0.382683
vn 0.000000 -0.923880 -0.382684
vn 0.000000 -0.382684 -0.923879
vn 0.000000 0.923880 -0.382683
vn 0.000000 0.382684 -0.923879
vn 0.923880 0.000000 -0.382683
vn 0.382684 0.000000 -0.923879
vn 0.382684 -0.923880 -0.000000
vn 0.923880 -0.382683 -0.000000
vn 0.382683 0.923880 -0.000000
vn 0.923880 0.382683 -0.000000
vn 0.382684 0.000000 0.923879
vn 0.923880 0.000000 0.382683
vn 0.000000 -0.923880 0.382684
vn 0.000000 -0.382684 0.923879
vn 0.000000 0.923880 0.382683
vn 0.000000 0.382684 0.923879
vn -0.382683 -0.923880 -0.000000
vn -0.923881 -0.382680 -0.000000
vn -0.382683 0.000000 0.923880
vn -0.923881 0.000000 0.382680
vn -0.382682 0.923880 -0.000000
vn -0.923882 0.382678 -0.000000
vn -0.382683 0.000000 -0.923880
vn -0.923881 0.000000 -0.382680
vn 0.000000 -0.923879 -0.382684
vn 0.000000 -0.382684 -0.923879
vn 0.000000 0.923880 -0.382683
vn 0.000000 0.382682 -0.923880
vn 0.923881 0.000000 -0.382680
vn 0.382683 0.000000 -0.923880
vn 0.382683 -0.923880 -0.000000
vn 0.923881 -0.382680 -0.000000
vn 0.382682 0.923880 -0.000000
vn 0.923882 0.382678 -0.000000
vn 0.382683 0.000000 0.923880
vn 0.923881 0.000000 0.382680
vn 0.000000 -0.923879 0.382684
vn 0.000000 -0.382684 0.923879
vn 0.000000 0.923880 0.382683
vn 0.000000 0.382682 0.923880
vn -0.382683 -0.923880 -0.000000
vn -0.923881 -0.382680 -0.000000
vn -0.382683 0.000000 0.923880
vn -0.923881 0.000000 0.382680
vn -0.382682 0.923880 -0.000000
vn -0.923882 0.382678 -0.000000
vn -0.382683 0.000000 -0.923880
vn -0.923881 0.000000 -0.382680
vn 0.000000 -0.923879 -0.382684
vn 0.000000 -0.382684 -0.923879
vn 0.000000 0.923880 -0.382683
vn 0.000000 0.382682 -0.923880
vn 0.923881 0.000000 -0.382680
vn 0.382683 0.000000 -0.923880
vn 0.382683 -0.923880 -0.000000
vn 0.923881 -0.382680 -0.000000
vn 0.382682 0.923880 -0.000000
vn 0.923882 0.382678 -0.000000
vn 0.382683 0.000000 0.923880
vn 0.923881 0.000000 0.382680
vn 0.000000 -0.923879 0.382684
vn 0.000000 -0.382684 0.923879
vn 0.000000 0.923880 0.382683
vn 0.000000 0.382682 0.923880
vn -0.382682 -0.923880 -0.000000
vn -0.923880 -0.382683 -0.000000
vn -0.382683 0.000000 0.923880
vn -0.923880 0.000000 0.382683
vn -0.382682 0.923880 -0.000000
vn -0.923881 0.382680 -0.000000
vn -0.382683 0.000000 -0.923880
vn -0.923880 0.000000 -0.382683
vn 0.000000 -0.923880 -0.382683
vn 0.000000 -0.382684 -0.923879
vn 0.000000 0.923880 -0.382683
vn 0.000000 0.382682 -0.923880
vn 0.923879 0.000000 -0.382684
vn 0.382684 0.000000 -0.923879
vn 0.382683 -0.923880 -0.000000
vn 0.923879 -0.382684 -0.000000
vn 0.382683 0.923880 -0.000000
vn 0.923880 0.382682 -0.000000
vn 0.382684 0.000000 0.923879
vn 0.923879 0.000000 0.382684
vn 0.000000 -0.923880 0.382683
vn 0.000000 -0.382684 0.923879
vn 0.000000 0.923880 0.382683
vn 0.000000 0.382682 0.923880
vn -0.382683 -0.923880 -0.000000
vn -0.923880 -0.382683 -0.000000
vn -0.382684 0.000000 0.923879
vn -0.923880 0.000000 0.382683
vn -0.382683 0.923880 -0.000000
vn -0.923881 0.382681 -0.000000
vn -0.382684 0.000000 -0.923879
vn -0.923880 0.000000 -0.382683
vn 0.000000 -0.923880 -0.382683
vn 0.000000 -0.382684 -0.923879
vn 0.000000 0.923880 -0.382683
vn 0.000000 0.382682 -0.923880
vn 0.923880 0.000000 -0.382683
vn 0.382684 0.000000 -0.923879
vn 0.382683 -0.923880 -0.000000
vn 0.923880 -0.382683 -0.000000
vn 0.382683 0.923880 -0.000000
vn 0.923881 0.382681 -0.000000
vn 0.382684 0.000000 0.923879
vn 0.923880 0.000000 0.382683
vn 0.000000 -0.923880 0.382683
vn 0.000000 -0.382684 0.923879
vn 0.000000 0.923880 0.382683
vn 0.000000 0.382682 0.923880
vn -0.382683 -0.923880 -0.000000
vn -0.923879 -0.382684 -0.000000
vn -0.382684 0.000000 0.923879
vn -0.923879 0.000000 0.382684
vn -0.382683 0.923880 -0.000000
vn -0.923880 0.382682 -0.000000
vn -0.382684 0.000000 -0.923879
vn -0.923879 0.000000 -0.382684
vn 0.000000 -0.923880 -0.382683
vn 0.000000 -0.382684 -0.923879
vn 0.000000 0.923880 -0.382683
vn 0.000000 0.382682 -0.923880
vn 0.923880 0.000000 -0.382683
vn 0.382683 0.000000 -0.923880
vn 0.382682 -0.923880 -0.000000
vn 0.923880 -0.382683 -0.000000
vn 0.382682 0.923880 -0.000000
vn 0.923881 0.382680 -0.000000
vn 0.382683 0.000000 0.923880
vn 0.923880 0.000000 0.382683
vn 0.000000 -0.923880 0.382683
vn 0.000000 -0.382684 0.923879
vn 0.000000 0.923880 0.382683
vn 0.000000 0.382682 0.923880
vn 0.000000 0.000000 -0.000000
vn 0.000000 0.000000 -1.000000
vn -0.382683 0.000000 0.923880
vn -0.923879 0.000000 0.382684
vn 0.000000 0.000000 -0.000000
vn 0.000000 0.000000 -0.000000
vn -0.382684 0.000000 -0.923879
vn -0.923879 -0.000000 -0.382684
vn 0.000000 -0.923880 -0.382683
vn 0.000000 -0.382683 -0.923880
vn 0.000000 0.923880 -0.382683
vn 0.000000 0.382684 -0.923879
vn 0.923878 0.000000 -0.382687
vn 0.382685 0.000000 -0.923879
vn 0.000000 0.000000 -0.000000
vn 0.000000 0.000000 1.000000
vn 0.000000 0.000000 -0.000000
vn 0.000000 0.000000 -1.000000
vn 0.382683 0.000000 0.923880
vn 0.923879 -0.000000 0.382684
vn 0.000000 -0.923880 0.382682
vn 0.000000 -0.382683 0.923880
vn 0.000000 0.923880 0.382682
vn 0.000000 0.382683 0.923880
vn 0.000000 -1.000000 -0.000000
vn 0.000000 0.000000 1.000000
vn 1.000000 0.000000 -0.000000
vn 0.000000 -1.000000 -0.000000
vn 0.000000 1.000000 -0.000000
vn -1.000000 0.000000 -0.000000
vn 0.000000 0.000000 -1.000000
vn 0.000000 0.000000 1.000000
vn 1.000000 0.000000 -0.000000
vn 0.000000 -1.000000 -0.000000
vn 0.000000 1.000000 -0.000000
vn -1.000000 0.000000 -0.000000
vn 0.000000 0.000000 -1.000000
vn 0.000000 0.000000 1.000000
vn 1.000000 0.000000 -0.000000
vn 0.000000 -1.000000 -0.000000
vn 0.000000 1.000000 -0.000000
vn -1.000000 0.000000 -0.000000
vn 0.000000 0.000000 -1.000000
vn 0.000000 0.000000 1.000000
vn 1.000000 0.000000 -0.000000
vn 0.000000 -1.000000 -0.000000
vn 0.000000 1.000000 -0.000000
vn -1.000000 0.000000 -0.000000
vn 0.000000 0.000000 -1.000000
vn 0.000000 0.000000 1.000000
vn 1.000000 0.000000 -0.000000
vn 0.000000 -1.000000 -0.000000
vn 0.000000 1.000000 -0.000000
vn -1.000000 0.000000 -0.000000
vn 0.000000 0.000000 -1.000000
vn 0.000000 0.000000 1.000000
vn 1.000000 0.000000 -0.000000
vn 0.000000 -1.000000 -0.000000
vn 0.000000 1.000000 -0.000000
vn -1.000000 0.000000 -0.000000
vn 0.000000 0.000000 -1.000000
vn 0.000000 0.000000 1.000000
vn 1.000000 0.000000 -0.000000
vn 0.000000 0.000000 -0.000000
vn 0.000000 1.000000 -0.000000
vn -1.000000 0.000000 -0.000000
vn 0.000000 0.000000 -1.000000
vn 0.000000 0.000000 1.000000
vn 0.000000 0.000000 -0.000000
vn 0.000000 0.000000 -0.000000
vn 0.000000 0.000000 -0.000000
vn 0.000000 0.000000 -1.000000
vn -0.281747 -0.886452 0.367180
vn -0.367181 -0.281747 0.886452
vn -0.886452 -0.367180 0.281748
vn -0.281747 0.367181 0.886452
vn -0.367180 0.886452 0.281747
vn -0.886452 0.281747 0.367180
vn -0.367180 -0.886452 -0.281747
vn -0.886452 -0.281747 -0.367180
vn -0.281747 -0.367181 -0.886452
vn -0.281747 0.886452 -0.367180
vn -0.367181 0.281747 -0.886452
vn -0.886452 0.367180 -0.281748
vn 0.367180 -0.886452 0.281747
vn 0.886452 -0.281747 0.367180
vn 0.281747 -0.367181 0.886452
vn 0.281747 0.886452 0.367180
vn 0.367181 0.281747 0.886452
vn 0.886452 0.367180 0.281748
vn 0.281747 -0.886452 -0.367180
vn 0.367181 -0.281747 -0.886452
vn 0.886452 -0.367180 -0.281748
vn 0.367180 0.886452 -0.281747
vn 0.886452 0.281747 -0.367180
vn 0.281747 0.367181 -0.886452
vn -0.281748 -0.886452 0.367181
vn -0.367181 -0.281748 0.886451
vn -0.886452 -0.367180 0.281748
vn -0.281749 0.367181 0.886451
vn -0.367180 0.886452 0.281748
vn -0.886452 0.281748 0.367180
vn -0.367181 -0.886452 -0.281747
vn -0.886452 -0.281748 -0.367180
vn -0.281748 -0.367181 -0.886452
vn -0.281748 0.886452 -0.367180
vn -0.367181 0.281749 -0.886451
vn -0.886452 0.367180 -0.281748
vn 0.367181 -0.886452 0.281747
vn 0.886452 -0.281748 0.367180
vn 0.281748 -0.367181 0.886452
vn 0.281748 0.886452 0.367180
vn 0.367181 0.281749 0.886451
vn 0.886452 0.367180 0.281748
vn 0.281748 -0.886452 -0.367181
vn 0.367181 -0.281748 -0.886451
vn 0.886452 -0.367180 -0.281748
vn 0.367180 0.886452 -0.281748
vn 0.886452 0.281748 -0.367180
vn 0.281749 0.367181 -0.886451
vn -0.281747 -0.886452 0.367180
vn -0.367180 -0.281746 0.886452
vn -0.886453 -0.367177 0.281747
vn -0.281747 0.367178 0.886453
vn -0.367179 0.886453 0.281748
vn -0.886454 0.281745 0.367177
vn -0.367180 -0.886452 -0.281747
vn -0.886453 -0.281747 -0.367177
vn -0.281746 -0.367180 -0.886452
vn -0.281748 0.886453 -0.367179
vn -0.367180 0.281745 -0.886453
vn -0.886454 0.367175 -0.281747
vn 0.367180 -0.886452 0.281747
vn 0.886453 -0.281747 0.367177
vn 0.281746 -0.367180 0.886452
vn 0.281748 0.886453 0.367179
vn 0.367180 0.281745 0.886453
vn 0.886454 0.367175 0.281747
vn 0.281747 -0.886452 -0.367180
vn 0.367180 -0.281746 -0.886452
vn 0.886453 -0.367177 -0.281747
vn 0.367179 0.886453 -0.281748
vn 0.886454 0.281745 -0.367177
vn 0.281747 0.367178 -0.886453
vn -0.281747 -0.886452 0.367180
vn -0.367180 -0.281746 0.886452
vn -0.886453 -0.367177 0.281747
vn -0.281747 0.367178 0.886453
vn -0.367179 0.886453 0.281748
vn -0.886454 0.281745 0.367177
vn -0.367180 -0.886452 -0.281747
vn -0.886453 -0.281747 -0.367177
vn -0.281746 -0.367180 -0.886452
vn -0.281748 0.886453 -0.367179
vn -0.367180 0.281745 -0.886453
vn -0.886454 0.367175 -0.281747
vn 0.367180 -0.886452 0.281747
vn 0.886453 -0.281747 0.367177
vn 0.281746 -0.367180 0.886452
vn 0.281748 0.886453 0.367179
vn 0.367180 0.281745 0.886453
vn 0.886454 0.367175 0.281747
vn 0.281747 -0.886452 -0.367180
vn 0.367180 -0.281746 -0.886452
vn 0.886453 -0.367177 -0.281747
vn 0.367179 0.886453 -0.281748
vn 0.886454 0.281745 -0.367177
vn 0.281747 0.367178 -0.886453
vn -0.281748 -0.886452 0.367179
vn -0.367180 -0.281749 0.886452
vn -0.886452 -0.367180 0.281748
vn -0.281748 0.367178 0.886452
vn -0.367179 0.886452 0.281748
vn -0.886452 0.281746 0.367180
vn -0.367179 -0.886452 -0.281748
vn -0.886452 -0.281748 -0.367180
vn -0.281749 -0.367180 -0.886452
vn -0.281748 0.886452 -0.367179
vn -0.367181 0.281746 -0.886452
vn -0.886453 0.367178 -0.281748
vn 0.367180 -0.886452 0.281748
vn 0.886452 -0.281747 0.367181
vn 0.281748 -0.367181 0.886451
vn 0.281748 0.886452 0.367180
vn 0.367181 0.281746 0.886452
vn 0.886453 0.367179 0.281746
vn 0.281748 -0.886452 -0.367180
vn 0.367181 -0.281748 -0.886452
vn 0.886452 -0.367181 -0.281747
vn 0.367180 0.886452 -0.281748
vn 0.886452 0.281745 -0.367181
vn 0.281748 0.367179 -0.886452
vn -0.281748 -0.886452 0.367180
vn -0.367181 -0.281748 0.886451
vn -0.886452 -0.367180 0.281748
vn -0.281748 0.367179 0.886452
vn -0.367180 0.886452 0.281748
vn -0.886452 0.281746 0.367180
vn -0.367180 -0.886452 -0.281748
vn -0.886452 -0.281748 -0.367180
vn -0.281748 -0.367181 -0.886451
vn -0.281748 0.886452 -0.367180
vn -0.367181 0.281746 -0.886452
vn -0.886453 0.367178 -0.281748
vn 0.367180 -0.886452 0.281748
vn 0.886452 -0.281748 0.367180
vn 0.281748 -0.367181 0.886451
vn 0.281748 0.886452 0.367180
vn 0.367181 0.281746 0.886452
vn 0.886453 0.367178 0.281748
vn 0.281748 -0.886452 -0.367180
vn 0.367181 -0.281748 -0.886451
vn 0.886452 -0.367180 -0.281748
vn 0.367180 0.886452 -0.281748
vn 0.886452 0.281746 -0.367180
vn 0.281748 0.367179 -0.886452
vn -0.281748 -0.886452 0.367180
vn -0.367181 -0.281748 0.886452
vn -0.886452 -0.367181 0.281747
vn -0.281748 0.367179 0.886452
vn -0.367180 0.886452 0.281748
vn -0.886452 0.281745 0.367181
vn -0.367180 -0.886452 -0.281748
vn -0.886452 -0.281747 -0.367181
vn -0.281748 -0.367181 -0.886451
vn -0.281748 0.886452 -0.367180
vn -0.367181 0.281746 -0.886452
vn -0.886453 0.367179 -0.281746
vn 0.367179 -0.886452 0.281748
vn 0.886452 -0.281748 0.367180
vn 0.281749 -0.367180 0.886452
vn 0.281748 0.886452 0.367179
vn 0.367181 0.281746 0.886452
vn 0.886453 0.367178 0.281748
vn 0.281748 -0.886452 -0.367179
vn 0.367180 -0.281749 -0.886452
vn 0.886452 -0.367180 -0.281748
vn 0.367179 0.886452 -0.281748
vn 0.886452 0.281746 -0.367180
vn 0.281748 0.367178 -0.886452
vn -0.281746 -0.886453 0.367180
vn -0.367180 -0.281747 0.886452
vn -0.886452 -0.367181 0.281746
vn -0.281748 0.367180 0.886452
vn -0.367180 0.886452 0.281747
vn -0.886452 0.281747 0.367181
vn -0.367181 -0.886452 -0.281746
vn -0.886451 -0.281746 -0.367183
vn -0.281746 -0.367181 -0.886452
vn -0.281747 0.886452 -0.367180
vn -0.367181 0.281746 -0.886452
vn -0.886452 0.367181 -0.281746
vn 0.367181 -0.886452 0.281746
vn 0.886451 -0.281747 0.367183
vn 0.281747 -0.367181 0.886452
vn 0.281748 0.886452 0.367179
vn 0.367180 0.281748 0.886452
vn 0.886452 0.367181 0.281747
vn 0.281746 -0.886453 -0.367180
vn 0.367181 -0.281746 -0.886452
vn 0.886452 -0.367181 -0.281746
vn 0.367181 0.886452 -0.281747
vn 0.886451 0.281747 -0.367184
vn 0.281747 0.367182 -0.886452
vn -0.382683 -0.923880 -0.000000
vn -0.923880 -0.382683 -0.000000
vn -0.382684 0.000000 0.923879
vn -0.923880 0.000000 0.382683
vn -0.382683 0.923880 -0.000000
vn -0.923880 0.382683 -0.000000
vn -0.382684 0.000000 -0.923879
vn -0.923880 0.000000 -0.382683
vn 0.000000 -0.923880 -0.382683
vn 0.000000 -0.382684 -0.923879
vn 0.000000 0.923880 -0.382683
vn 0.000000 0.382684 -0.923879
vn 0.923880 0.000000 -0.382683
vn 0.382684 0.000000 -0.923879
vn 0.382683 -0.923880 -0.000000
vn 0.923880 -0.382683 -0.000000
vn 0.382683 0.923880 -0.000000
vn 0.923880 0.382683 -0.000000
vn 0.382684 0.000000 0.923879
vn 0.923880 0.000000 0.382683
vn 0.000000 -0.923880 0.382683
vn 0.000000 -0.382684 0.923879
vn 0.000000 0.923880 0.382683
vn 0.000000 0.382684 0.923879
vn -0.382684 -0.923879 -0.000000
vn -0.923880 -0.382683 -0.000000
vn -0.382684 0.000000 0.923879
vn -0.923880 0.000000 0.382683
vn -0.382683 0.923880 -0.000000
vn -0.923880 0.382683 -0.000000
vn -0.382684 0.000000 -0.923879
vn -0.923880 0.000000 -0.382683
vn 0.000000 -0.923880 -0.382684
vn 0.000000 -0.382684 -0.923879
vn 0.000000 0.923880 -0.382683
vn 0.000000 0.382684 -0.923879
vn 0.923880 0.000000 -0.382683
vn 0.382684 0.000000 -0.923879
vn 0.382684 -0.923879 -0.000000
vn 0.923880 -0.382683 -0.000000
vn 0.382683 0.923880 -0.000000
vn 0.923880 0.382683 -0.000000
vn 0.382684 0.000000 0.923879
vn 0.923880 0.000000 0.382683
vn 0.000000 -0.923880 0.382684
vn 0.000000 -0.382684 0.923879
vn 0.000000 0.923880 0.382683
vn 0.000000 0.382684 0.923879
vn -0.382683 -0.923880 -0.000000
vn -0.923881 -0.382680 -0.000000
vn -0.382683 0.000000 0.923880
vn -0.923881 0.000000 0.382680
vn -0.382682 0.923880 -0.000000
vn -0.923882 0.382678 -0.000000
vn -0.382683 0.000000 -0.923880
vn -0.923881 0.000000 -0.382680
vn 0.000000 -0.923880 -0.382684
vn 0.000000 -0.382684 -0.923879
vn 0.000000 0.923880 -0.382683
vn 0.000000 0.382682 -0.923880
vn 0.923881 0.000000 -0.382680
vn 0.382683 0.000000 -0.923880
vn 0.382683 -0.923880 -0.000000
vn 0.923881 -0.382680 -0.000000
vn 0.382682 0.923880 -0.000000
vn 0.923882 0.382678 -0.000000
vn 0.382683 0.000000 0.923880
vn 0.923881 0.000000 0.382680
vn 0.000000 -0.923880 0.382684
vn 0.000000 -0.382684 0.923879
vn 0.000000 0.923880 0.382683
vn 0.000000 0.382682 0.923880
vn -0.382683 -0.923880 -0.000000
vn -0.923881 -0.382680 -0.000000
vn -0.382683 0.000000 0.923880
vn -0.923881 0.000000 0.382680
vn -0.382682 0.923880 -0.000000
vn -0.923882 0.382678 -0.000000
vn -0.382683 0.000000 -0.923880
vn -0.923881 0.000000 -0.382680
vn 0.000000 -0.923880 -0.382684
vn 0.000000 -0.382684 -0.923879
vn 0.000000 0.923880 -0.382683
vn 0.000000 0.382682 -0.923880
vn 0.923881 0.000000 -0.382680
vn 0.382683 0.000000 -0.923880
vn 0.382683 -0.923880 -0.000000
vn 0.923881 -0.382680 -0.000000
vn 0.382682 0.923880 -0.000000
vn 0.923882 0.382678 -0.000000
vn 0.382683 0.000000 0.923880
vn 0.923881 0.000000 0.382680
vn 0.000000 -0.923880 0.382684
vn 0.000000 -0.382684 0.923879
vn 0.000000 0.923880 0.382683
vn 0.000000 0.382682 0.923880
vn -0.382682 -0.923880 -0.000000
vn -0.923880 -0.382683 -0.000000
vn -0.382683 0.000000 0.923880
vn -0.923880 0.000000 0.382683
vn -0.382682 0.923880 -0.000000
vn -0.923881 0.382680 -0.000000
vn -0.382683 0.000000 -0.923880
vn -0.923880 0.000000 -0.382683
vn 0.000000 -0.923880 -0.382683
vn 0.000000 -0.382684 -0.923879
vn 0.000000 0.923880 -0.382683
vn 0.000000 0.382682 -0.923880
vn 0.923879 0.000000 -0.382684
vn 0.382684 0.000000 -0.923879
vn 0.382683 -0.923880 -0.000000
vn 0.923879 -0.382684 -0.000000
vn 0.382683 0.923880 -0.000000
vn 0.923880 0.382682 -0.000000
vn 0.382684 0.000000 0.923879
vn 0.923879 0.000000 0.382684
vn 0.000000 -0.923880 0.382683
vn 0.000000 -0.382684 0.923879
vn 0.000000 0.923880 0.382683
vn 0.000000 0.382682 0.923880
vn -0.382683 -0.923880 -0.000000
vn -0.923880 -0.382683 -0.000000
vn -0.382684 0.000000 0.923879
vn -0.923880 0.000000 0.382683
vn -0.382683 0.923880 -0.000000
vn -0.923881 0.382681 -0.000000
vn -0.382684 0.000000 -0.923879
vn -0.923880 0.000000 -0.382683
vn 0.000000 -0.923880 -0.382683
vn 0.000000 -0.382684 -0.923879
vn 0.000000 0.923880 -0.382683
vn 0.000000 0.382682 -0.923880
vn 0.923880 0.000000 -0.382683
vn 0.382684 0.000000 -0.923879
vn 0.382683 -0.923880 -0.000000
vn 0.923880 -0.382683 -0.000000
vn 0.382683 0.923880 -0.000000
vn 0.923881 0.382681 -0.000000
vn 0.382684 0.000000 0.923879
vn 0.923880 0.000000 0.382683
vn 0.000000 -0.923880 0.382683
vn 0.000000 -0.382684 0.923879
vn 0.000000 0.923880 0.382683
vn 0.000000 0.382682 0.923880
vn -0.382683 -0.923880 -0.000000
vn -0.923879 -0.382684 -0.000000
vn -0.382684 0.000000 0.923879
vn -0.923879 0.000000 0.382684
vn -0.382683 0.923880 -0.000000
vn -0.923880 0.382682 -0.000000
vn -0.382684 0.000000 -0.923879
vn -0.923879 0.000000 -0.382684
vn 0.000000 -0.923880 -0.382683
vn 0.000000 -0.382684 -0.923879
vn 0.000000 0.923880 -0.382683
vn 0.000000 0.382682 -0.923880
vn 0.923880 0.000000 -0.382683
vn 0.382683 0.000000 -0.923880
vn 0.382682 -0.923880 -0.000000
vn 0.923880 -0.382683 -0.000000
vn 0.382682 0.923880 -0.000000
vn 0.923881 0.382680 -0.000000
vn 0.382683 0.000000 0.923880
vn 0.923880 0.000000 0.382683
vn 0.000000 -0.923880 0.382683
vn 0.000000 -0.382684 0.923879
vn 0.000000 0.923880 0.382683
vn 0.000000 0.382682 0.923880
vn 0.000000 0.000000 -1.000000
vn 0.000000 0.000000 -0.000000
vn -0.382683 0.000000 0.923880
vn -0.923879 0.000000 0.382684
vn 0.000000 0.000000 -0.000000
vn 0.000000 0.000000 -0.000000
vn -0.382685 -0.000000 -0.923879
vn -0.923878 0.000000 -0.382687
vn 0.000000 -0.923880 -0.382683
vn 0.000000 -0.382683 -0.923880
vn 0.000000 0.923880 -0.382683
vn 0.000000 0.382684 -0.923879
vn 0.923879 0.000000 -0.382684
vn 0.382684 0.000000 -0.923879
vn 0.000000 0.000000 1.000000
vn 0.000000 0.000000 -0.000000
vn 0.000000 0.000000 -1.000000
vn 0.000000 0.000000 -0.000000
vn 0.382684 -0.000000 0.923879
vn 0.923878 0.000000 0.382686
vn 0.000000 -0.923880 0.382682
vn 0.000000 -0.382683 0.923880
vn 0.000000 0.923880 0.382682
vn 0.000000 0.382683 0.923880
vn 0.000000 -1.000000 -0.000000
f 37//1 2//1 31//1
f 51//2 30//2 45//2
f 99//3 57//3 71//3
f 22//4 36//4 50//4
f 10//5 16//5 3//5
f 23//6 44//6 17//6
f 93//7 58//7 87//7
f 107//8 86//8 101//8
f 155//9 113//9 127//9
f 78//10 92//10 106//10
f 66//11 72//11 59//11
f 79//12 100//12 73//12
f 149//13 114//13 143//13
f 163//14 142//14 157//14
f 211//15 169//15 183//15
f 134//16 148//16 162//16
f 122//17 128//17 115//17
f 135//18 156//18 129//18
f 205//19 170//19 199//19
f 219//20 198//20 213//20
f 267//21 225//21 239//21
f 190//22 204//22 218//22
f 178//23 184//23 171//23
f 191//24 212//24 185//24
f 261//25 226//25 255//25
f 275//26 254//26 269//26
f 323//27 281//27 295//27
f 246//28 260//28 274//28
f 234//29 240//29 227//29
f 247//30 268//30 241//30
f 317//31 282//31 311//31
f 331//32 310//32 325//32
f 379//33 337//33 351//33
f 302//34 316//34 330//34
f 290//35 296//35 283//35
f 303//36 324//36 297//36
f 373//37 338//37 367//37
f 387//38 366//38 381//38
f 435//39 393//39 407//39
f 358//40 372//40 386//40
f 346//41 352//41 339//41
f 359//42 380//42 353//42
f 429//43 394//43 423//43
f 443//44 422//44 437//44
f 414//45 428//45 442//45
f 402//46 408//46 395//46
f 415//47 436//47 409//47
f 1//48 5//48 7//48
f 2//49 5//49 4//49
f 3//50 5//50 6//50
f 8//51 12//51 14//51
f 9//52 12//52 11//52
f 10//53 12//53 13//53
f 15//54 19//54 21//54
f 16//55 19//55 18//55
f 17//56 19//56 20//56
f 22//57 26//57 28//57
f 23//58 26//58 25//58
f 24//59 26//59 27//59
f 29//60 33//60 35//60
f 30//61 33//61 32//61
f 31//62 33//62 34//62
f 36//63 40//63 42//63
f 37//64 40//64 39//64
f 38//65 40//65 41//65
f 43//66 47//66 49//66
f 44//67 47//67 46//67
f 45//68 47//68 48//68
f 50//69 54//69 56//69
f 51//70 54//70 53//70
f 52//71 54//71 55//71
f 57//72 61//72 63//72
f 58//73 61//73 60//73
f 59//74 61//74 62//74
f 64//75 68//75 70//75
f 65//76 68//76 67//76
f 66//77 68//77 69//77
f 71//78 75//78 77//78
f 72//79 75//79 74//79
f 73//80 75//80 76//80
f 78//81 82//81 84//81
f 79//82 82//82 81//82
f 80//83 82//83 83//83
f 85//84 89//84 91//84
f 86//85 89//85 88//85
f 87//86 89//86 90//86
f 92//87 96//87 98//87
f 93//88 96//88 95//88
f 94//89 96//89 97//89
f 99//90 103//90 105//90
f 100//91 103//91 102//91
f 101//92 103//92 104//92
f 106//93 110//93 112//93
f 107//94 110//94 109//94
f 108//95 110//95 111//95
f 113//96 117//96 119//96
f 114//97 117//97 116//97
f 115//98 117//98 118//98
f 120//99 124//99 126//99
f 121//100 124//100 123//100
f 122//101 124//101 125//101
f 127//102 131//102 133//102
f 128//103 131//103 130//103
f 129//104 131//104 132//104
f 134//105 138//105 140//105
f 135//106 138//106 137//106
f 136//107 138//107 139//107
f 141//108 145//108 147//108
f 142//109 145//109 144//109
f 143//110 145//110 146//110
f 148//111 152//111 154//111
f 149//112 152//112 151//112
f 150//113 152//113 153//113
f 155//114 159//114 161//114
f 156//115 159//115 158//115
f 157//116 159//116 160//116
f 162//117 166//117 168//117
f 163//118 166//118 165//118
f 164//119 166//119 167//119
f 169//120 173//120 175//120
f 170//121 173//121 172//121
f 171//122 173//122 174//122
f 176//123 180//123 182//123
f 177//124 180//124 179//124
f 178//125 180//125 181//125
f 183//126 187//126 189//126
f 184//127 187//127 186//127
f 185//128 187//128 188//128
f 190//129 194//129 196//129
f 191//130 194//130 193//130
f 192//131 194//131 195//131
f 197//132 201//132 203//132
f 198//133 201//133 200//133
f 199//134 201//134 202//134
f 204//135 208//135 210//135
f 205//136 208//136 207//136
f 206//137 208//137 209//137
f 211//138 215//138 217//138
f 212//139 215//139 214//139
f 213//140 215//140 216//140
f 218//141 222//141 224//141
f 219//142 222//142 221//142
f 220//143 222//143 223//143
f 225//144 229//144 231//144
f 226//145 229//145 228//145
f 227//146 229//146 230//146
f 232//147 236//147 238//147
f 233//148 236//148 235//148
f 234//149 236//149 237//149
f 239//150 243//150 245//150
f 240//151 243//151 242//151
f 241//152 243//152 244//152
f 246//153 250//153 252//153
f 247//154 250//154 249//154
f 248//155 250//155 251//155
f 253//156 257//156 259//156
f 254//157 257//157 256//157
f 255//158 257//158 258//158
f 260//159 264//159 266//159
f 261//160 264//160 263//160
f 262//161 264//161 265//161
f 267//162 271//162 273//162
f 268//163 271//163 270//163
f 269//164 271//164 272//164
f 274//165 278//165 280//165
f 275//166 278//166 277//166
f 276//167 278//167 279//167
f 281//168 285//168 287//168
f 282//169 285//169 284//169
f 283//170 285//170 286//170
f 288//171 292//171 294//171
f 289//172 292//172 291//172
f 290//173 292//173 293//173
f 295//174 299//174 301//174
f 296//175 299//175 298//175
f 297//176 299//176 300//176
f 302//177 306//177 308//177
f 303//178 306//178 305//178
f 304//179 306//179 307//179
f 309//180 313//180 315//180
f 310//181 313//181 312//181
f 311//182 313//182 314//182
f 316//183 320//183 322//183
f 317//184 320//184 319//184
f 318//185 320//185 321//185
f 323//186 327//186 329//186
f 324//187 327//187 326//187
f 325//188 327//188 328//188
f 330//189 334//189 336//189
f 331//190 334//190 333//190
f 332//191 334//191 335//191
f 337//192 341//192 343//192
f 338//193 341//193 340//193
f 339//194 341//194 342//194
f 344//195 348//195 350//195
f 345//196 348//196 347//196
f 346//197 348//197 349//197
f 351//198 355//198 357//198
f 352//199 355//199 354//199
f 353//200 355//200 356//200
f 358//201 362//201 364//201
f 359//202 362//202 361//202
f 360//203 362//203 363//203
f 365//204 369//204 371//204
f 366//205 369//205 368//205
f 367//206 369//206 370//206
f 372//207 376//207 378//207
f 373//208 376//208 375//208
f 374//209 376//209 377//209
f 379//210 383//210 385//210
f 380//211 383//211 382//211
f 381//212 383//212 384//212
f 386//213 390//213 392//213
f 387//214 390//214 389//214
f 388//215 390//215 391//215
f 393//216 397//216 399//216
f 394//217 397//217 396//217
f 395//218 397//218 398//218
f 400//219 404//219 406//219
f 401//220 404//220 403//220
f 402//221 404//221 405//221
f 407//222 411//222 413//222
f 408//223 411//223 410//223
f 409//224 411//224 412//224
f 414//225 418//225 420//225
f 415//226 418//226 417//226
f 416//227 418//227 419//227
f 421//228 425//228 427//228
f 422//229 425//229 424//229
f 423//230 425//230 426//230
f 428//231 432//231 434//231
f 429//232 432//232 431//232
f 430//233 432//233 433//233
f 435//234 439//234 441//234
f 436//235 439//235 438//235
f 437//236 439//236 440//236
f 442//237 446//237 448//237
f 443//238 446//238 445//238
f 444//239 446//239 447//239
f 1//240 18//240 15//240
f 7//241 16//241 18//241
f 8//242 6//242 2//242
f 14//243 3//243 6//243
f 22//244 13//244 9//244
f 28//245 10//245 13//245
f 17//246 27//246 23//246
f 20//247 24//247 27//247
f 15//248 46//248 43//248
f 21//249 44//249 46//249
f 50//250 25//250 22//250
f 56//251 23//251 25//251
f 45//252 55//252 51//252
f 48//253 52//253 55//253
f 43//254 32//254 29//254
f 49//255 30//255 32//255
f 36//256 53//256 50//256
f 42//257 51//257 53//257
f 31//258 41//258 37//258
f 34//259 38//259 41//259
f 29//260 4//260 1//260
f 35//261 2//261 4//261
f 9//262 39//262 36//262
f 11//263 37//263 39//263
f 57//264 74//264 71//264
f 63//265 72//265 74//265
f 64//266 62//266 58//266
f 70//267 59//267 62//267
f 78//268 69//268 65//268
f 84//269 66//269 69//269
f 73//270 83//270 79//270
f 76//271 80//271 83//271
f 71//272 102//272 99//272
f 77//273 100//273 102//273
f 106//274 81//274 78//274
f 112//275 79//275 81//275
f 101//276 111//276 107//276
f 104//277 108//277 111//277
f 99//278 88//278 85//278
f 105//279 86//279 88//279
f 92//280 109//280 106//280
f 98//281 107//281 109//281
f 87//282 97//282 93//282
f 90//283 94//283 97//283
f 85//284 60//284 57//284
f 91//285 58//285 60//285
f 65//286 95//286 92//286
f 67//287 93//287 95//287
f 113//288 130//288 127//288
f 119//289 128//289 130//289
f 120//290 118//290 114//290
f 126//291 115//291 118//291
f 134//292 125//292 121//292
f 140//293 122//293 125//293
f 129//294 139//294 135//294
f 132//295 136//295 139//295
f 127//296 158//296 155//296
f 133//297 156//297 158//297
f 162//298 137//298 134//298
f 168//299 135//299 137//299
f 157//300 167//300 163//300
f 160//301 164//301 167//301
f 155//302 144//302 141//302
f 161//303 142//303 144//303
f 148//304 165//304 162//304
f 154//305 163//305 165//305
f 143//306 153//306 149//306
f 146//307 150//307 153//307
f 141//308 116//308 113//308
f 147//309 114//309 116//309
f 121//310 151//310 148//310
f 123//311 149//311 151//311
f 169//312 186//312 183//312
f 175//313 184//313 186//313
f 176//314 174//314 170//314
f 182//315 171//315 174//315
f 190//316 181//316 177//316
f 196//317 178//317 181//317
f 185//318 195//318 191//318
f 188//319 192//319 195//319
f 183//320 214//320 211//320
f 189//321 212//321 214//321
f 218//322 193//322 190//322
f 224//323 191//323 193//323
f 213//324 223//324 219//324
f 216//325 220//325 223//325
f 211//326 200//326 197//326
f 217//327 198//327 200//327
f 204//328 221//328 218//328
f 210//329 219//329 221//329
f 199//330 209//330 205//330
f 202//331 206//331 209//331
f 197//332 172//332 169//332
f 203//333 170//333 172//333
f 177//334 207//334 204//334
f 179//335 205//335 207//335
f 225//336 242//336 239//336
f 231//337 240//337 242//337
f 232//338 230//338 226//338
f 238//339 227//339 230//339
f 246//340 237//340 233//340
f 252//341 234//341 237//341
f 241//342 251//342 247//342
f 244//343 248//343 251//343
f 239//344 270//344 267//344
f 270//345 241//345 268//345
f 246//346 280//346 249//346
f 280//347 247//347 249//347
f 269//348 279//348 275//348
f 272//349 276//349 279//349
f 267//350 256//350 253//350
f 273//351 254//351 256//351
f 260//352 277//352 274//352
f 266//353 275//353 277//353
f 255//354 265//354 261//354
f 258//355 262//355 265//355
f 225//356 259//356 228//356
f 259//357 226//357 228//357
f 233//358 263//358 260//358
f 263//359 232//359 261//359
f 281//360 298//360 295//360
f 287//361 296//361 298//361
f 288//362 286//362 282//362
f 294//363 283//363 286//363
f 302//364 293//364 289//364
f 308//365 290//365 293//365
f 297//366 307//366 303//366
f 300//367 304//367 307//367
f 295//368 326//368 323//368
f 301//369 324//369 326//369
f 330//370 305//370 302//370
f 336//371 303//371 305//371
f 325//372 335//372 331//372
f 328//373 332//373 335//373
f 323//374 312//374 309//374
f 329//375 310//375 312//375
f 316//376 333//376 330//376
f 322//377 331//377 333//377
f 311//378 321//378 317//378
f 314//379 318//379 321//379
f 309//380 284//380 281//380
f 315//381 282//381 284//381
f 289//382 319//382 316//382
f 291//383 317//383 319//383
f 337//384 354//384 351//384
f 343//385 352//385 354//385
f 344//386 342//386 338//386
f 350//387 339//387 342//387
f 358//388 349//388 345//388
f 364//389 346//389 349//389
f 353//390 363//390 359//390
f 356//391 360//391 363//391
f 379//392 357//392 382//392
f 357//393 380//393 382//393
f 386//394 361//394 358//394
f 361//395 388//395 359//395
f 381//396 391//396 387//396
f 384//397 388//397 391//397
f 379//398 368//398 365//398
f 385//399 366//399 368//399
f 372//400 389//400 386//400
f 378//401 387//401 389//401
f 367//402 377//402 373//402
f 370//403 374//403 377//403
f 365//404 340//404 337//404
f 340//405 367//405 338//405
f 372//406 347//406 375//406
f 347//407 373//407 375//407
f 393//408 410//408 407//408
f 399//409 408//409 410//409
f 400//410 398//410 394//410
f 406//411 395//411 398//411
f 414//412 405//412 401//412
f 420//413 402//413 405//413
f 409//414 419//414 415//414
f 412//415 416//415 419//415
f 435//416 413//416 438//416
f 413//417 436//417 438//417
f 414//418 448//418 417//418
f 448//419 415//419 417//419
f 437//420 447//420 443//420
f 440//421 444//421 447//421
f 435//422 424//422 421//422
f 441//423 422//423 424//423
f 428//424 445//424 442//424
f 434//425 443//425 445//425
f 423//426 433//426 429//426
f 426//427 430//427 433//427
f 393//428 427//428 396//428
f 427//429 394//429 396//429
f 401//430 431//430 428//430
f 403//431 429//431 431//431
f 43//432 1//432 15//432
f 37//433 8//433 2//433
f 51//434 38//434 30//434
f 99//435 85//435 57//435
f 22//436 9//436 36//436
f 10//437 24//437 16//437
f 23//438 52//438 44//438
f 93//439 64//439 58//439
f 107//440 94//440 86//440
f 155//441 141//441 113//441
f 78//442 65//442 92//442
f 66//443 80//443 72//443
f 79//444 108//444 100//444
f 149//445 120//445 114//445
f 163//446 150//446 142//446
f 211//447 197//447 169//447
f 134//448 121//448 148//448
f 122//449 136//449 128//449
f 135//450 164//450 156//450
f 205//451 176//451 170//451
f 219//452 206//452 198//452
f 267//453 253//453 225//453
f 190//454 177//454 204//454
f 178//455 192//455 184//455
f 191//456 220//456 212//456
f 261//457 232//457 226//457
f 275//458 262//458 254//458
f 323//459 309//459 281//459
f 246//460 233//460 260//460
f 234//461 248//461 240//461
f 247//462 276//462 268//462
f 317//463 288//463 282//463
f 331//464 318//464 310//464
f 379//465 365//465 337//465
f 302//466 289//466 316//466
f 290//467 304//467 296//467
f 303//468 332//468 324//468
f 373//469 344//469 338//469
f 387//470 374//470 366//470
f 435//471 421//471 393//471
f 358//472 345//472 372//472
f 346//473 360//473 352//473
f 359//474 388//474 380//474
f 429//475 400//475 394//475
f 443//476 430//476 422//476
f 414//477 401//477 428//477
f 402//478 416//478 408//478
f 415//479 444//479 436//479
f 1//480 4//480 5//480
f 2//481 6//481 5//481
f 3//482 7//482 5//482
f 8//483 11//483 12//483
f 9//484 13//484 12//484
f 10//485 14//485 12//485
f 15//486 18//486 19//486
f 16//487 20//487 19//487
f 17//488 21//488 19//488
f 22//489 25//489 26//489
f 23//490 27//490 26//490
f 24//491 28//491 26//491
f 29//492 32//492 33//492
f 30//493 34//493 33//493
f 31//494 35//494 33//494
f 36//495 39//495 40//495
f 37//496 41//496 40//496
f 38//497 42//497 40//497
f 43//498 46//498 47//498
f 44//499 48//499 47//499
f 45//500 49//500 47//500
f 50//501 53//501 54//501
f 51//502 55//502 54//502
f 52//503 56//503 54//503
f 57//504 60//504 61//504
f 58//505 62//505 61//505
f 59//506 63//506 61//506
f 64//507 67//507 68//507
f 65//508 69//508 68//508
f 66//509 70//509 68//509
f 71//510 74//510 75//510
f 72//511 76//511 75//511
f 73//512 77//512 75//512
f 78//513 81//513 82//513
f 79//514 83//514 82//514
f 80//515 84//515 82//515
f 85//516 88//516 89//516
f 86//517 90//517 89//517
f 87//518 91//518 89//518
f 92//519 95//519 96//519
f 93//520 97//520 96//520
f 94//521 98//521 96//521
f 99//522 102//522 103//522
f 100//523 104//523 103//523
f 101//524 105//524 103//524
f 106//525 109//525 110//525
f 107//526 111//526 110//526
f 108//527 112//527 110//527
f 113//528 116//528 117//528
f 114//529 118//529 117//529
f 115//530 119//530 117//530
f 120//531 123//531 124//531
f 121//532 125//532 124//532
f 122//533 126//533 124//533
f 127//534 130//534 131//534
f 128//535 132//535 131//535
f 129//536 133//536 131//536
f 134//537 137//537 138//537
f 135//538 139//538 138//538
f 136//539 140//539 138//539
f 141//540 144//540 145//540
f 142//541 146//541 145//541
f 143//542 147//542 145//542
f 148//543 151//543 152//543
f 149//544 153//544 152//544
f 150//545 154//545 152//545
f 155//546 158//546 159//546
f 156//547 160//547 159//547
f 157//548 161//548 159//548
f 162//549 165//549 166//549
f 163//550 167//550 166//550
f 164//551 168//551 166//551
f 169//552 172//552 173//552
f 170//553 174//553 173//553
f 171//554 175//554 173//554
f 176//555 179//555 180//555
f 177//556 181//556 180//556
f 178//557 182//557 180//557
f 183//558 186//558 187//558
f 184//559 188//559 187//559
f 185//560 189//560 187//560
f 190//561 193//561 194//561
f 191//562 195//562 194//562
f 192//563 196//563 194//563
f 197//564 200//564 201//564
f 198//565 202//565 201//565
f 199//566 203//566 201//566
f 204//567 207//567 208//567
f 205//568 209//568 208//568
f 206//569 210//569 208//569
f 211//570 214//570 215//570
f 212//571 216//571 215//571
f 213//572 217//572 215//572
f 218//573 221//573 222//573
f 219//574 223//574 222//574
f 220//575 224//575 222//575
f 225//576 228//576 229//576
f 226//577 230//577 229//577
f 227//578 231//578 229//578
f 232//579 235//579 236//579
f 233//580 237//580 236//580
f 234//581 238//581 236//581
f 239//582 242//582 243//582
f 240//583 244//583 243//583
f 241//584 245//584 243//584
f 246//585 249//585 250//585
f 247//586 251//586 250//586
f 248//587 252//587 250//587
f 253//588 256//588 257//588
f 254//589 258//589 257//589
f 255//590 259//590 257//590
f 260//591 263//591 264//591
f 261//592 265//592 264//592
f 262//593 266//593 264//593
f 267//594 270//594 271//594
f 268//595 272//595 271//595
f 269//596 273//596 271//596
f 274//597 277//597 278//597
f 275//598 279//598 278//598
f 276//599 280//599 278//599
f 281//600 284//600 285//600
f 282//601 286//601 285//601
f 283//602 287//602 285//602
f 288//603 291//603 292//603
f 289//604 293//604 292//604
f 290//605 294//605 292//605
f 295//606 298//606 299//606
f 296//607 300//607 299//607
f 297//608 301//608 299//608
f 302//609 305//609 306//609
f 303//610 307//610 306//610
f 304//611 308//611 306//611
f 309//612 312//612 313//612
f 310//613 314//613 313//613
f 311//614 315//614 313//614
f 316//615 319//615 320//615
f 317//616 321//616 320//616
f 318//617 322//617 320//617
f 323//618 326//618 327//618
f 324//619 328//619 327//619
f 325//620 329//620 327//620
f 330//621 333//621 334//621
f 331//622 335//622 334//622
f 332//623 336//623 334//623
f 337//624 340//624 341//624
f 338//625 342//625 341//625
f 339//626 343//626 341//626
f 344//627 347//627 348//627
f 345//628 349//628 348//628
f 346//629 350//629 348//629
f 351//630 354//630 355//630
f 352//631 356//631 355//631
f 353//632 357//632 355//632
f 358//633 361//633 362//633
f 359//634 363//634 362//634
f 360//635 364//635 362//635
f 365//636 368//636 369//636
f 366//637 370//637 369//637
f 367//638 371//638 369//638
f 372//639 375//639 376//639
f 373//640 377//640 376//640
f 374//641 378//641 376//641
f 379//642 382//642 383//642
f 380//643 384//643 383//643
f 381//644 385//644 383//644
f 386//645 389//645 390//645
f 387//646 391//646 390//646
f 388//647 392//647 390//647
f 393//648 396//648 397//648
f 394//649 398//649 397//649
f 395//650 399//650 397//650
f 400//651 403//651 404//651
f 401//652 405//652 404//652
f 402//653 406//653 404//653
f 407//654 410//654 411//654
f 408//655 412//655 411//655
f 409//656 413//656 411//656
f 414//657 417//657 418//657
f 415//658 419//658 418//658
f 416//659 420//659 418//659
f 421//660 424//660 425//660
f 422//661 426//661 425//661
f 423//662 427//662 425//662
f 428//663 431//663 432//663
f 429//664 433//664 432//664
f 430//665 434//665 432//665
f 435//666 438//666 439//666
f 436//667 440//667 439//667
f 437//668 441//668 439//668
f 442//669 445//669 446//669
f 443//670 447//670 446//670
f 444//671 448//671 446//671
f 1//672 7//672 18//672
f 7//673 3//673 16//673
f 8//674 14//674 6//674
f 14//675 10//675 3//675
f 22//676 28//676 13//676
f 28//677 24//677 10//677
f 17//678 20//678 27//678
f 20//679 16//679 24//679
f 15//680 21//680 46//680
f 21//681 17//681 44//681
f 50//682 56//682 25//682
f 56//683 52//683 23//683
f 45//684 48//684 55//684
f 48//685 44//685 52//685
f 43//686 49//686 32//686
f 49//687 45//687 30//687
f 36//688 42//688 53//688
f 42//689 38//689 51//689
f 31//690 34//690 41//690
f 34//691 30//691 38//691
f 29//692 35//692 4//692
f 35//693 31//693 2//693
f 9//694 11//694 39//694
f 11//695 8//695 37//695
f 57//696 63//696 74//696
f 63//697 59//697 72//697
f 64//698 70//698 62//698
f 70//699 66//699 59//699
f 78//700 84//700 69//700
f 84//701 80//701 66//701
f 73//702 76//702 83//702
f 76//703 72//703 80//703
f 71//704 77//704 102//704
f 77//705 73//705 100//705
f 106//706 112//706 81//706
f 112//707 108//707 79//707
f 101//708 104//708 111//708
f 104//709 100//709 108//709
f 99//710 105//710 88//710
f 105//711 101//711 86//711
f 92//712 98//712 109//712
f 98//713 94//713 107//713
f 87//714 90//714 97//714
f 90//715 86//715 94//715
f 85//716 91//716 60//716
f 91//717 87//717 58//717
f 65//718 67//718 95//718
f 67//719 64//719 93//719
f 113//720 119//720 130//720
f 119//721 115//721 128//721
f 120//722 126//722 118//722
f 126//723 122//723 115//723
f 134//724 140//724 125//724
f 140//725 136//725 122//725
f 129//726 132//726 139//726
f 132//727 128//727 136//727
f 127//728 133//728 158//728
f 133//729 129//729 156//729
f 162//730 168//730 137//730
f 168//731 164//731 135//731
f 157//732 160//732 167//732
f 160//733 156//733 164//733
f 155//734 161//734 144//734
f 161//735 157//735 142//735
f 148//736 154//736 165//736
f 154//737 150//737 163//737
f 143//738 146//738 153//738
f 146//739 142//739 150//739
f 141//740 147//740 116//740
f 147//741 143//741 114//741
f 121//742 123//742 151//742
f 123//743 120//743 149//743
f 169//744 175//744 186//744
f 175//745 171//745 184//745
f 176//746 182//746 174//746
f 182//747 178//747 171//747
f 190//748 196//748 181//748
f 196//749 192//749 178//749
f 185//750 188//750 195//750
f 188//751 184//751 192//751
f 183//752 189//752 214//752
f 189//753 185//753 212//753
f 218//754 224//754 193//754
f 224//755 220//755 191//755
f 213//756 216//756 223//756
f 216//757 212//757 220//757
f 211//758 217//758 200//758
f 217//759 213//759 198//759
f 204//760 210//760 221//760
f 210//761 206//761 219//761
f 199//762 202//762 209//762
f 202//763 198//763 206//763
f 197//764 203//764 172//764
f 203//765 199//765 170//765
f 177//766 179//766 207//766
f 179//767 176//767 205//767
f 225//768 231//768 242//768
f 231//769 227//769 240//769
f 232//770 238//770 230//770
f 238//771 234//771 227//771
f 246//772 252//772 237//772
f 252//773 248//773 234//773
f 241//774 244//774 251//774
f 244//775 240//775 248//775
f 239//776 245//776 270//776
f 270//777 245//777 241//777
f 246//778 274//778 280//778
f 280//779 276//779 247//779
f 269//780 272//780 279//780
f 272//781 268//781 276//781
f 267//782 273//782 256//782
f 273//783 269//783 254//783
f 260//784 266//784 277//784
f 266//785 262//785 275//785
f 255//786 258//786 265//786
f 258//787 254//787 262//787
f 225//788 253//788 259//788
f 259//789 255//789 226//789
f 233//790 235//790 263//790
f 263//791 235//791 232//791
f 281//792 287//792 298//792
f 287//793 283//793 296//793
f 288//794 294//794 286//794
f 294//795 290//795 283//795
f 302//796 308//796 293//796
f 308//797 304//797 290//797
f 297//798 300//798 307//798
f 300//799 296//799 304//799
f 295//800 301//800 326//800
f 301//801 297//801 324//801
f 330//802 336//802 305//802
f 336//803 332//803 303//803
f 325//804 328//804 335//804
f 328//805 324//805 332//805
f 323//806 329//806 312//806
f 329//807 325//807 310//807
f 316//808 322//808 333//808
f 322//809 318//809 331//809
f 311//810 314//810 321//810
f 314//811 310//811 318//811
f 309//812 315//812 284//812
f 315//813 311//813 282//813
f 289//814 291//814 319//814
f 291//815 288//815 317//815
f 337//816 343//816 354//816
f 343//817 339//817 352//817
f 344//818 350//818 342//818
f 350//819 346//819 339//819
f 358//820 364//820 349//820
f 364//821 360//821 346//821
f 353//822 356//822 363//822
f 356//823 352//823 360//823
f 379//824 351//824 357//824
f 357//825 353//825 380//825
f 386//826 392//826 361//826
f 361//827 392//827 388//827
f 381//828 384//828 391//828
f 384//829 380//829 388//829
f 379//830 385//830 368//830
f 385//831 381//831 366//831
f 372//832 378//832 389//832
f 378//833 374//833 387//833
f 367//834 370//834 377//834
f 370//835 366//835 374//835
f 365//836 371//836 340//836
f 340//837 371//837 367//837
f 372//838 345//838 347//838
f 347//839 344//839 373//839
f 393//840 399//840 410//840
f 399//841 395//841 408//841
f 400//842 406//842 398//842
f 406//843 402//843 395//843
f 414//844 420//844 405//844
f 420//845 416//845 402//845
f 409//846 412//846 419//846
f 412//847 408//847 416//847
f 435//848 407//848 413//848
f 413//849 409//849 436//849
f 414//850 442//850 448//850
f 448//851 444//851 415//851
f 437//852 440//852 447//852
f 440//853 436//853 444//853
f 435//854 441//854 424//854
f 441//855 437//855 422//855
f 428//856 434//856 445//856
f 434//857 430//857 443//857
f 423//858 426//858 433//858
f 426//859 422//859 430//859
f 393//860 421//860 427//860
f 427//861 423//861 394//861
f 401//862 403//862 431//862
f 403//863 400//863 429//863
f 43//864 29//864 1//864
