# Original asset generated in Blender
v -0.233000 0.205000 0.132500
v -0.233000 0.217000 0.144500
v -0.245000 0.217000 0.132500
v -0.233000 0.208515 0.140985
v -0.239928 0.210072 0.139428
v -0.241485 0.217000 0.140985
v -0.241485 0.208515 0.132500
v -0.233000 0.923000 0.144500
v -0.233000 0.935000 0.132500
v -0.245000 0.923000 0.132500
v -0.233000 0.931485 0.140985
v -0.239928 0.929928 0.139428
v -0.241485 0.931485 0.132500
v -0.241485 0.923000 0.140985
v -0.233000 0.205000 0.121500
v -0.245000 0.217000 0.121500
v -0.233000 0.217000 0.109500
v -0.241485 0.208515 0.121500
v -0.239928 0.210072 0.114572
v -0.241485 0.217000 0.113015
v -0.233000 0.208515 0.113015
v -0.233000 0.935000 0.121500
v -0.233000 0.923000 0.109500
v -0.245000 0.923000 0.121500
v -0.233000 0.931485 0.113015
v -0.239928 0.929928 0.114572
v -0.241485 0.923000 0.113015
v -0.241485 0.931485 0.121500
v 0.233000 0.205000 0.132500
v 0.245000 0.217000 0.132500
v 0.233000 0.217000 0.144500
v 0.241485 0.208515 0.132500
v 0.239928 0.210072 0.139428
v 0.241485 0.217000 0.140985
v 0.233000 0.208515 0.140985
v 0.233000 0.935000 0.132500
v 0.233000 0.923000 0.144500
v 0.245000 0.923000 0.132500
v 0.233000 0.931485 0.140985
v 0.239928 0.929928 0.139428
v 0.241485 0.923000 0.140985
v 0.241485 0.931485 0.132500
v 0.233000 0.205000 0.121500
v 0.233000 0.217000 0.109500
v 0.245000 0.217000 0.121500
v 0.233000 0.208515 0.113015
v 0.239928 0.210072 0.114572
v 0.241485 0.217000 0.113015
v 0.241485 0.208515 0.121500
v 0.233000 0.935000 0.121500
v 0.245000 0.923000 0.121500
v 0.233000 0.923000 0.109500
v 0.241485 0.931485 0.121500
v 0.239928 0.929928 0.114572
v 0.241485 0.923000 0.113015
v 0.233000 0.931485 0.113015
vn 0.000000 0.000000 1.000000
vn 1.000000 0.000000 -0.000000
vn 0.000000 1.000000 -0.000000
vn -1.000000 0.000000 -0.000000
vn 0.000000 0.000000 -1.000000
vn -0.367177 -0.886453 0.281747
vn -0.281747 -0.367179 0.886453
vn -0.886453 -0.281746 0.367180
vn -0.367180 0.281747 0.886452
vn -0.281747 0.886453 0.367177
vn -0.886453 0.367180 0.281746
vn -0.281747 -0.886453 -0.367177
vn -0.886453 -0.367180 -0.281746
vn -0.367180 -0.281747 -0.886452
vn -0.367177 0.886453 -0.281747
vn -0.281747 0.367179 -0.886453
vn -0.886453 0.281746 -0.367180
vn 0.281747 -0.886453 0.367177
vn 0.886453 -0.367180 0.281746
vn 0.367180 -0.281747 0.886452
vn 0.367177 0.886453 0.281747
vn 0.281747 0.367179 0.886453
vn 0.886453 0.281746 0.367180
vn 0.367177 -0.886453 -0.281747
vn 0.281747 -0.367179 -0.886453
vn 0.886453 -0.281746 -0.367180
vn 0.281747 0.886453 -0.367177
vn 0.886453 0.367180 -0.281746
vn 0.367180 0.281747 -0.886452
vn -0.382680 -0.923881 -0.000000
vn -0.923880 -0.382682 -0.000000
vn -0.382684 0.000000 0.923879
vn -0.923880 0.000000 0.382684
vn -0.382680 0.923881 -0.000000
vn -0.923880 0.382682 -0.000000
vn -0.382684 0.000000 -0.923879
vn -0.923880 -0.000000 -0.382684
vn -0.000000 -0.923881 -0.382680
vn -0.000000 -0.382682 -0.923880
vn 0.000000 0.923881 -0.382680
vn 0.000000 0.382682 -0.923880
vn 0.923879 0.000000 -0.382684
vn 0.382684 0.000000 -0.923879
vn 0.382680 -0.923881 -0.000000
vn 0.923880 -0.382682 -0.000000
vn 0.382680 0.923881 -0.000000
vn 0.923880 0.382682 -0.000000
vn 0.382684 0.000000 0.923879
vn 0.923880 -0.000000 0.382684
vn 0.000000 -0.923881 0.382680
vn 0.000000 -0.382682 0.923880
vn -0.000000 0.923881 0.382680
vn -0.000000 0.382682 0.923880
vn 0.000000 -1.000000 -0.000000
vn 0.000000 0.000000 1.000000
vn 1.000000 0.000000 -0.000000
vn 0.000000 1.000000 -0.000000
vn -1.000000 0.000000 -0.000000
vn 0.000000 0.000000 -1.000000
vn -0.281747 -0.886454 0.367177
vn -0.367180 -0.281747 0.886452
vn -0.886453 -0.367180 0.281746
vn -0.281747 0.367179 0.886452
vn -0.367177 0.886453 0.281747
vn -0.886453 0.281746 0.367180
vn -0.367177 -0.886453 -0.281747
vn -0.886453 -0.281746 -0.367180
vn -0.281747 -0.367179 -0.886452
vn -0.281747 0.886454 -0.367177
vn -0.367180 0.281747 -0.886452
vn -0.886453 0.367180 -0.281746
vn 0.367177 -0.886453 0.281747
vn 0.886453 -0.281746 0.367180
vn 0.281747 -0.367179 0.886452
vn 0.281747 0.886454 0.367177
vn 0.367180 0.281747 0.886452
vn 0.886453 0.367180 0.281746
vn 0.281747 -0.886454 -0.367177
vn 0.367180 -0.281747 -0.886452
vn 0.886453 -0.367180 -0.281746
vn 0.367177 0.886453 -0.281747
vn 0.886453 0.281746 -0.367180
vn 0.281747 0.367179 -0.886452
vn -0.382680 -0.923881 -0.000000
vn -0.923880 -0.382682 -0.000000
vn -0.382684 0.000000 0.923879
vn -0.923879 0.000000 0.382684
vn -0.382680 0.923881 -0.000000
vn -0.923880 0.382682 -0.000000
vn -0.382684 -0.000000 -0.923879
vn -0.923879 -0.000000 -0.382684
vn -0.000000 -0.923881 -0.382680
vn 0.000000 -0.382682 -0.923880
vn 0.000000 0.923881 -0.382680
vn 0.000000 0.382682 -0.923880
vn 0.923879 0.000000 -0.382684
vn 0.382684 0.000000 -0.923879
vn 0.382680 -0.923881 -0.000000
vn 0.923880 -0.382682 -0.000000
vn 0.382680 0.923881 -0.000000
vn 0.923880 0.382682 -0.000000
vn 0.382684 -0.000000 0.923879
vn 0.923879 -0.000000 0.382684
vn 0.000000 -0.923881 0.382680
vn 0.000000 -0.382682 0.923880
vn -0.000000 0.923881 0.382680
vn 0.000000 0.382682 0.923880
vn 0.000000 -1.000000 -0.000000
f 37//1 2//1 31//1
f 51//2 30//2 45//2
f 22//3 36//3 50//3
f 10//4 16//4 3//4
f 23//5 44//5 17//5
f 1//6 5//6 7//6
f 2//7 5//7 4//7
f 3//8 5//8 6//8
f 8//9 12//9 14//9
f 9//10 12//10 11//10
f 10//11 12//11 13//11
f 15//12 19//12 21//12
f 16//13 19//13 18//13
f 17//14 19//14 20//14
f 22//15 26//15 28//15
f 23//16 26//16 25//16
f 24//17 26//17 27//17
f 29//18 33//18 35//18
f 30//19 33//19 32//19
f 31//20 33//20 34//20
f 36//21 40//21 42//21
f 37//22 40//22 39//22
f 38//23 40//23 41//23
f 43//24 47//24 49//24
f 44//25 47//25 46//25
f 45//26 47//26 48//26
f 50//27 54//27 56//27
f 51//28 54//28 53//28
f 52//29 54//29 55//29
f 1//30 18//30 15//30
f 18//31 3//31 16//31
f 8//32 6//32 2//32
f 14//33 3//33 6//33
f 22//34 13//34 9//34
f 13//35 24//35 10//35
f 17//36 27//36 23//36
f 20//37 24//37 27//37
f 15//38 46//38 43//38
f 21//39 44//39 46//39
f 50//40 25//40 22//40
f 56//41 23//41 25//41
f 45//42 55//42 51//42
f 48//43 52//43 55//43
f 43//44 32//44 29//44
f 32//45 45//45 30//45
f 36//46 53//46 50//46
f 53//47 38//47 51//47
f 31//48 41//48 37//48
f 34//49 38//49 41//49
f 29//50 4//50 1//50
f 35//51 2//51 4//51
f 9//52 39//52 36//52
f 11//53 37//53 39//53
f 43//54 1//54 15//54
f 37//55 8//55 2//55
f 51//56 38//56 30//56
f 22//57 9//57 36//57
f 10//58 24//58 16//58
f 23//59 52//59 44//59
f 1//60 4//60 5//60
f 2//61 6//61 5//61
f 3//62 7//62 5//62
f 8//63 11//63 12//63
f 9//64 13//64 12//64
f 10//65 14//65 12//65
f 15//66 18//66 19//66
f 16//67 20//67 19//67
f 17//68 21//68 19//68
f 22//69 25//69 26//69
f 23//70 27//70 26//70
f 24//71 28//71 26//71
f 29//72 32//72 33//72
f 30//73 34//73 33//73
f 31//74 35//74 33//74
f 36//75 39//75 40//75
f 37//76 41//76 40//76
f 38//77 42//77 40//77
f 43//78 46//78 47//78
f 44//79 48//79 47//79
f 45//80 49//80 47//80
f 50//81 53//81 54//81
f 51//82 55//82 54//82
f 52//83 56//83 54//83
f 1//84 7//84 18//84
f 18//85 7//85 3//85
f 8//86 14//86 6//86
f 14//87 10//87 3//87
f 22//88 28//88 13//88
f 13//89 28//89 24//89
f 17//90 20//90 27//90
f 20//91 16//91 24//91
f 15//92 21//92 46//92
f 21//93 17//93 44//93
f 50//94 56//94 25//94
f 56//95 52//95 23//95
f 45//96 48//96 55//96
f 48//97 44//97 52//97
f 43//98 49//98 32//98
f 32//99 49//99 45//99
f 36//100 42//100 53//100
f 53//101 42//101 38//101
f 31//102 34//102 41//102
f 34//103 30//103 38//103
f 29//104 35//104 4//104
f 35//105 31//105 2//105
f 9//106 11//106 39//106
f 11//107 8//107 37//107
f 43//108 29//108 1//108
